<!--
Created with Chapman Taylor Dynamo SVG exporter
byabear@chapmantaylor.com  

Revit Source File:
C:\Users\un1216\OneDrive - ENGIE\BIM\9 - Répertoire de travail\11 - RATP Boissy Leger\Temp\01_MAQUETTE GABARIT\RATP_BOISSY_GAB_BIM.rvt

Date:
06/05/2020 16:08:32
-->

<svg xmlns="http://www.w3.org/2000/svg" class="gen-by-CTA-dyn-Synoptic-for-PowerBI" viewBox=" 400429.0 -1037810.0 885010.0 549476.0 " transform="scale( 0.95 )">

<style>
polygon {
fill: gainsboro;
stroke: red;
stroke-width: 0.1px;
}
</style>

<polygon id="00001" points="+936488.655,-530659.011,+938588.655,-530659.011,+938588.655,-533459.011,+941411.272,-533459.011,+941411.272,-573359.011,+927388.655,-573359.011,+916328.655,-573359.011,+916328.655,-536784.011,+920983.655,-536784.011,+920983.655,-526319.011,+936488.655,-526319.011" />
<polygon id="00002" points="+907438.655,-544449.011,+907438.655,-572729.011,+904988.655,-572729.011,+874479.321,-572729.011,+874479.321,-544449.011" />
<polygon id="00003" points="+904988.655,-573219.011,+904988.655,-575109.011,+907438.655,-575109.011,+907438.655,-584864.241,+907438.655,-600797.586,+907438.655,-605673.070,+874479.321,-605673.070,+874479.321,-573219.011" />
<polygon id="00004" points="+1075088.655,-530659.011,+1110123.655,-530659.011,+1110123.655,-555124.011,+1075088.655,-555124.011,+1075088.655,-533459.011" />
<polygon id="00005" points="+604611.566,-845462.607,+649761.566,-845462.607,+649761.566,-869647.607,+604611.566,-869647.607" />
<polygon id="00006" points="+711954.719,-876255.607,+683674.719,-876255.607,+683674.719,-854835.607,+711954.719,-854835.607" />
<polygon id="00007" points="+563941.566,-747665.607,+529018.655,-747665.607,+529018.655,-723095.607,+563941.566,-723095.607" />
<polygon id="00008" points="+907438.655,-828455.850,+907438.655,-842175.850,+883727.971,-842175.850,+883727.971,-818935.850,+904219.702,-818935.850,+904219.702,-825009.011,+904219.702,-827109.011,+904219.702,-828455.850" />
<polygon id="00009" points="+903938.655,-698659.011,+903938.655,-699569.011,+880783.718,-699569.011,+880783.718,-700059.011,+903938.655,-700059.011,+903938.655,-701459.011,+907438.655,-701459.011,+907438.655,-707549.011,+908838.655,-707549.011,+908838.655,-701459.011,+908838.655,-699624.235,+917714.543,-699624.235,+917714.543,-730103.259,+908838.655,-730103.259,+908838.655,-721409.011,+907438.655,-721409.011,+907438.655,-730103.259,+874398.655,-730103.259,+874398.655,-680683.259,+907438.655,-680683.259,+907438.655,-698659.011" />
<polygon id="CR001" points="+920629.810,-488334.754,+920629.810,-502166.840,+907788.655,-502166.840,+907788.655,-488334.754,+920618.617,-488334.754" />
<polygon id="CR002" points="+470638.655,-501547.704,+470638.655,-490934.011,+483426.297,-490934.011,+483426.297,-500781.443,+483426.297,-501547.704" />
<polygon id="CR003" points="+1142638.655,-501547.704,+1142638.655,-489563.821,+1143382.398,-489563.821,+1155938.655,-489563.821,+1155938.655,-501547.704" />
<polygon id="CR004" points="+908838.655,-573359.011,+908838.655,-572974.011,+908838.655,-544204.011,+908838.655,-526319.011,+920493.655,-526319.011,+920493.655,-536294.011,+915838.655,-536294.011,+915838.655,-573359.011" />
<polygon id="CR005" points="+482538.655,-617459.011,+470638.655,-617459.011,+470638.655,-590649.011,+451913.655,-590649.011,+445392.104,-590649.011,+439442.104,-590649.011,+433352.104,-590649.011,+427588.655,-590649.011,+427588.655,-580817.601,+470848.655,-580817.601,+470848.655,-578189.011,+470848.655,-575039.011,+470848.655,-546304.011,+470848.655,-526284.011,+482958.655,-526284.011,+482958.655,-561599.011,+495209.171,-561599.011,+495209.171,-572204.011,+495209.171,-578189.011,+495209.171,-580289.011,+495209.171,-589459.011,+483588.655,-589459.011,+483588.655,-573677.601,+482538.655,-573677.601,+482538.655,-589459.011,+482538.655,-608079.011" />
<polygon id="LC001" points="+946638.655,-1037809.011,+908838.655,-1037809.011,+908838.655,-1034309.011,+908838.655,-1001969.011,+908838.655,-995109.011,+908838.655,-993009.011,+908838.655,-953459.011,+908838.655,-950659.011,+908838.655,-911109.011,+908838.655,-909009.011,+908838.655,-869459.011,+908838.655,-866659.011,+908838.655,-827109.011,+908838.655,-825009.011,+908838.655,-785459.011,+908838.655,-782659.011,+908838.655,-756759.011,+908838.655,-731769.011,+908838.655,-721409.011,+908838.655,-707549.011,+908838.655,-701459.011,+908838.655,-698659.011,+908838.655,-659109.011,+908838.655,-657009.011,+908838.655,-655189.011,+908838.655,-623689.011,+908838.655,-618509.011,+911568.655,-618509.011,+942088.655,-618509.011,+946288.655,-618509.011,+949088.655,-618509.011,+988288.655,-618509.011,+991088.655,-618509.011,+1030288.655,-618509.011,+1033088.655,-618509.011,+1072288.655,-618509.011,+1075088.655,-618509.011,+1089228.655,-618509.011,+1114288.655,-618509.011,+1117088.655,-618509.011,+1156288.655,-618509.011,+1159088.655,-618509.011,+1195488.655,-618509.011,+1198288.655,-618509.011,+1240288.655,-618509.011,+1243088.655,-618509.011,+1282638.655,-618509.011,+1285438.655,-618509.011,+1285438.655,-657009.011,+1282638.655,-657009.011,+1282638.655,-659109.011,+1285438.655,-659109.011,+1285438.655,-698659.011,+1281938.655,-698659.011,+1281938.655,-701459.011,+1285438.655,-701459.011,+1285438.655,-741009.011,+1282638.655,-741009.011,+1282638.655,-743109.011,+1285438.655,-743109.011,+1285438.655,-782659.011,+1281938.655,-782659.011,+1281938.655,-785459.011,+1285438.655,-785459.011,+1285438.655,-825009.011,+1282638.655,-825009.011,+1282638.655,-827109.011,+1285438.655,-827109.011,+1285438.655,-866659.011,+1281938.655,-866659.011,+1281938.655,-869459.011,+1285438.655,-869459.011,+1285438.655,-909009.011,+1282638.655,-909009.011,+1282638.655,-911109.011,+1285438.655,-911109.011,+1285438.655,-950659.011,+1281938.655,-950659.011,+1281938.655,-953459.011,+1285438.655,-953459.011,+1285438.655,-987409.011,+1100646.493,-987409.011,+1100646.493,-1037809.011,+1074738.655,-1037809.011,+1074738.655,-1034309.011,+1072638.655,-1034309.011,+1072638.655,-1037809.011,+1032738.655,-1037809.011,+1032738.655,-1034309.011,+1030638.655,-1034309.011,+1030638.655,-1037809.011,+990738.655,-1037809.011,+990738.655,-1034309.011,+988638.655,-1034309.011,+988638.655,-1037809.011,+948738.655,-1037809.011,+948738.655,-1034309.011,+946638.655,-1034309.011" />
<polygon id="LC002" points="+652638.655,-1037809.011,+602588.655,-1037809.011,+602588.655,-1034309.011,+600488.655,-1034309.011,+600488.655,-995459.011,+600488.655,-993359.011,+600488.655,-953109.011,+600488.655,-951009.011,+600488.655,-920559.011,+600488.655,-917934.011,+600488.655,-913734.011,+599438.655,-913734.011,+599438.655,-917409.011,+596638.655,-917409.011,+585998.655,-917409.011,+585998.655,-906979.011,+583758.655,-906979.011,+566958.655,-906979.011,+564718.655,-906979.011,+564718.655,-917409.011,+563388.655,-917409.011,+530499.822,-917409.011,+529963.655,-917409.011,+529963.655,-917449.116,+527338.655,-917449.116,+489888.655,-917449.116,+487788.655,-917449.116,+487788.655,-906559.011,+487788.655,-903409.011,+483938.655,-903409.011,+451038.655,-903409.011,+448938.655,-903409.011,+445788.655,-903409.011,+424928.655,-903409.011,+402738.655,-903409.011,+400428.655,-903409.011,+400428.655,-869459.011,+403438.655,-869459.011,+403438.655,-866659.011,+400428.655,-866659.011,+400428.655,-827109.011,+402738.655,-827109.011,+402738.655,-825009.011,+400428.655,-825009.011,+400428.655,-785459.011,+402738.655,-785459.011,+402738.655,-782659.011,+400428.655,-782659.011,+400428.655,-743109.011,+402738.655,-743109.011,+402738.655,-741009.011,+400428.655,-741009.011,+400428.655,-701459.011,+402738.655,-701459.011,+402738.655,-698659.011,+400428.655,-698659.011,+400428.655,-659809.011,+402738.655,-659809.011,+402738.655,-657709.011,+400428.655,-657709.011,+400428.655,-618509.011,+402738.655,-618509.011,+438858.655,-618509.011,+441938.655,-618509.011,+445438.655,-618509.011,+470288.655,-618509.011,+483133.655,-618509.011,+484288.655,-618509.011,+487088.655,-618509.011,+495257.046,-618509.011,+514458.655,-618509.011,+526288.655,-618509.011,+529088.655,-618509.011,+568708.655,-618509.011,+573328.655,-618509.011,+610288.655,-618509.011,+613088.655,-618509.011,+643923.655,-618509.011,+650853.655,-618509.011,+652288.655,-618509.011,+655088.655,-618509.011,+656243.655,-618509.011,+663033.655,-618509.011,+669403.655,-618509.011,+675913.655,-618509.011,+682073.655,-618509.011,+694288.655,-618509.011,+697088.655,-618509.011,+705523.655,-618509.011,+730513.655,-618509.011,+736288.655,-618509.011,+739088.655,-618509.011,+757267.782,-618509.011,+778288.655,-618509.011,+781088.655,-618509.011,+782733.655,-618509.011,+808423.655,-618509.011,+820288.655,-618509.011,+823088.655,-618509.011,+858963.655,-618509.011,+862288.655,-618509.011,+865088.655,-618509.011,+893333.655,-618509.011,+894937.802,-618509.011,+894937.802,-671064.264,+903302.802,-671064.264,+903302.802,-618509.011,+903343.655,-618509.011,+907438.655,-618509.011,+907438.655,-623689.011,+907438.655,-655189.011,+907438.655,-657009.011,+904638.655,-657009.011,+904638.655,-659109.011,+907438.655,-659109.011,+907438.655,-698659.011,+903938.655,-698659.011,+903938.655,-701459.011,+907438.655,-701459.011,+907438.655,-707549.011,+907438.655,-721409.011,+907438.655,-731769.011,+907438.655,-756759.011,+907438.655,-782659.011,+903938.655,-782659.011,+903938.655,-785459.011,+907438.655,-785459.011,+907438.655,-825009.011,+904638.655,-825009.011,+904638.655,-827109.011,+907438.655,-827109.011,+907438.655,-866659.011,+903938.655,-866659.011,+903938.655,-869459.011,+907438.655,-869459.011,+907438.655,-909009.011,+904638.655,-909009.011,+904638.655,-911109.011,+907438.655,-911109.011,+907438.655,-950659.011,+903938.655,-950659.011,+903938.655,-953459.011,+907438.655,-953459.011,+907438.655,-993009.011,+904638.655,-993009.011,+904638.655,-995109.011,+907438.655,-995109.011,+907438.655,-1001969.011,+907438.655,-1034309.011,+905338.655,-1034309.011,+905338.655,-1037809.011,+864738.655,-1037809.011,+864738.655,-1034309.011,+862638.655,-1034309.011,+862638.655,-1037809.011,+822738.655,-1037809.011,+822738.655,-1034309.011,+820638.655,-1034309.011,+820638.655,-1037809.011,+780738.655,-1037809.011,+780738.655,-1034309.011,+778638.655,-1034309.011,+778638.655,-1037809.011,+738738.655,-1037809.011,+738738.655,-1034309.011,+736638.655,-1034309.011,+736638.655,-1037809.011,+696738.655,-1037809.011,+696738.655,-1034309.011,+694638.655,-1034309.011,+694638.655,-1037809.011,+654738.655,-1037809.011,+654738.655,-1034309.011,+652638.655,-1034309.011" />
<polygon id="LC003" points="+526638.655,-1037809.011,+509838.655,-1037809.011,+509838.655,-961509.011,+527338.655,-961509.011,+530488.655,-961509.011,+530488.655,-957659.011,+530488.655,-953459.011,+530488.655,-950659.011,+530488.655,-921299.116,+530488.655,-918459.011,+563388.655,-918459.011,+563388.655,-921299.116,+565488.655,-921299.116,+565488.655,-918499.116,+565768.655,-918499.116,+565768.655,-908029.011,+566958.655,-908029.011,+566958.655,-906979.011,+583758.655,-906979.011,+583758.655,-908029.011,+584948.655,-908029.011,+584948.655,-918459.011,+596638.655,-918459.011,+596638.655,-920559.011,+599438.655,-920559.011,+599438.655,-951009.011,+596638.655,-951009.011,+596638.655,-953109.011,+599438.655,-953109.011,+599438.655,-993359.011,+596638.655,-993359.011,+596638.655,-995459.011,+599438.655,-995459.011,+599438.655,-1034309.011,+599438.655,-1037809.011,+570738.655,-1037809.011,+570738.655,-1034309.011,+568638.655,-1034309.011,+568638.655,-1037809.011,+528738.655,-1037809.011,+528738.655,-1034309.011,+526638.655,-1034309.011" />
<polygon id="LC004" points="+442638.655,-1037809.011,+402038.655,-1037809.011,+402038.655,-1034309.011,+400428.655,-1034309.011,+400428.655,-995109.011,+402738.655,-995109.011,+402738.655,-993009.011,+400428.655,-993009.011,+400428.655,-953459.011,+402738.655,-953459.011,+402738.655,-950659.011,+400428.655,-950659.011,+400428.655,-906559.011,+402738.655,-906559.011,+402738.655,-904459.011,+424928.655,-904459.011,+445788.655,-904459.011,+448938.655,-904459.011,+448938.655,-907259.011,+451038.655,-907259.011,+451038.655,-904459.011,+483938.655,-904459.011,+483938.655,-906559.011,+486738.655,-906559.011,+486738.655,-917974.116,+486738.655,-921259.011,+486738.655,-951009.011,+483938.655,-951009.011,+483938.655,-953109.011,+486738.655,-953109.011,+486738.655,-957659.011,+486738.655,-960984.011,+486738.655,-993359.011,+483938.655,-993359.011,+483938.655,-995459.011,+486738.655,-995459.011,+486738.655,-1034309.011,+484638.655,-1034309.011,+484638.655,-1037809.011,+444738.655,-1037809.011,+444738.655,-1034309.011,+442638.655,-1034309.011" />
<polygon id="LC005" points="+487788.655,-951009.011,+487788.655,-921259.011,+489888.655,-921259.011,+489888.655,-918499.116,+527338.655,-918499.116,+527338.655,-921299.116,+529438.655,-921299.116,+529438.655,-950659.011,+525938.655,-950659.011,+525938.655,-953459.011,+529438.655,-953459.011,+529438.655,-957659.011,+527338.655,-957659.011,+527338.655,-960459.011,+509313.655,-960459.011,+489888.655,-960459.011,+489888.655,-957659.011,+487788.655,-957659.011,+487788.655,-953109.011" />
<polygon id="LC006" points="+508788.655,-1037809.011,+487788.655,-1037809.011,+487788.655,-1034309.011,+487788.655,-995459.011,+487788.655,-993359.011,+487788.655,-961509.011,+489888.655,-961509.011,+508788.655,-961509.011" />
<polygon id="LC007" points="+651938.655,-782659.011,+651938.655,-784059.011,+529438.655,-784059.011,+529438.655,-782659.011,+527688.655,-782659.011,+527688.655,-748155.607,+564431.566,-748155.607,+564431.566,-722605.607,+527688.655,-722605.607,+527688.655,-720359.011,+653688.655,-720359.011,+653688.655,-765859.011,+651588.655,-765859.011,+651588.655,-767959.011,+653688.655,-767959.011,+653688.655,-782659.011" />
<polygon id="LC008" points="+1114638.655,-1037809.011,+1100646.493,-1037809.011,+1100646.493,-987409.011,+1285438.655,-987409.011,+1285438.655,-993009.011,+1282638.655,-993009.011,+1282638.655,-995109.011,+1285438.655,-995109.011,+1285438.655,-1034309.011,+1283338.655,-1034309.011,+1283338.655,-1037809.011,+1242738.655,-1037809.011,+1242738.655,-1034309.011,+1240638.655,-1034309.011,+1240638.655,-1037809.011,+1200738.655,-1037809.011,+1200738.655,-1034309.011,+1198638.655,-1034309.011,+1198638.655,-1037809.011,+1158738.655,-1037809.011,+1158738.655,-1034309.011,+1156638.655,-1034309.011,+1156638.655,-1037809.011,+1116738.655,-1037809.011,+1116738.655,-1034309.011,+1114638.655,-1034309.011" />
<polygon id="LC009" points="+1159095.806,-530659.011,+1194438.655,-530659.011,+1194438.655,-533459.011,+1194438.655,-573009.011,+1194438.655,-575109.011,+1194438.655,-614659.011,+1194438.655,-616059.011,+1159088.655,-616059.011,+1159088.655,-614659.011,+1156288.655,-614659.011,+1156288.655,-616059.011,+1117088.655,-616059.011,+1117088.655,-614659.011,+1114288.655,-614659.011,+1114288.655,-616059.011,+1075088.655,-616059.011,+1075088.655,-614659.011,+1072288.655,-614659.011,+1072288.655,-616059.011,+1033088.655,-616059.011,+1033088.655,-614659.011,+1030288.655,-614659.011,+1030288.655,-616059.011,+991088.655,-616059.011,+991088.655,-614659.011,+988288.655,-614659.011,+988288.655,-616059.011,+949088.655,-616059.011,+949088.655,-614659.011,+946288.655,-614659.011,+946288.655,-616059.011,+941901.272,-616059.011,+941901.272,-533459.011,+941901.272,-530659.011,+967288.655,-530659.011,+967288.655,-533459.011,+970088.655,-533459.011,+970088.655,-530659.011,+998788.655,-530659.011,+998788.655,-533459.011,+1001588.655,-533459.011,+1001588.655,-530659.011,+1030295.806,-530659.011,+1030295.806,-533459.011,+1033095.806,-533459.011,+1033095.806,-530659.011,+1072288.655,-530659.011,+1072288.655,-533459.011,+1075088.655,-533459.011,+1075088.655,-530659.011,+1114288.655,-530659.011,+1114288.655,-533459.011,+1117088.655,-533459.011,+1117088.655,-530659.011,+1156295.806,-530659.011,+1156295.806,-533459.011,+1159095.806,-533459.011" />
<polygon id="LC010" points="+582288.655,-614659.011,+582288.655,-575284.011,+582288.655,-572204.011,+582288.655,-555789.011,+582288.655,-533459.011,+585088.655,-533459.011,+585088.655,-530659.011,+617288.655,-530659.011,+617288.655,-533459.011,+620088.655,-533459.011,+620088.655,-530659.011,+652295.806,-530659.011,+652295.806,-533459.011,+655095.806,-533459.011,+655095.806,-530659.011,+694288.655,-530659.011,+694288.655,-533459.011,+697088.655,-533459.011,+697088.655,-530659.011,+722148.655,-530659.011,+722148.655,-533459.011,+724948.655,-533459.011,+724948.655,-530659.011,+750148.655,-530659.011,+750148.655,-533459.011,+752948.655,-533459.011,+752948.655,-530659.011,+778288.655,-530659.011,+778288.655,-533459.011,+781088.655,-533459.011,+781088.655,-530659.011,+806148.655,-530659.011,+806148.655,-533459.011,+808948.655,-533459.011,+808948.655,-530659.011,+834288.655,-530659.011,+834288.655,-533459.011,+837088.655,-533459.011,+837088.655,-530659.011,+873989.321,-530659.011,+873989.321,-533459.011,+873989.321,-544204.011,+873989.321,-572974.011,+873989.321,-605918.070,+873989.321,-616059.011,+865088.655,-616059.011,+865088.655,-614659.011,+862288.655,-614659.011,+862288.655,-616059.011,+823088.655,-616059.011,+823088.655,-614659.011,+820288.655,-614659.011,+820288.655,-616059.011,+781088.655,-616059.011,+781088.655,-614659.011,+778288.655,-614659.011,+778288.655,-616059.011,+739088.655,-616059.011,+739088.655,-614659.011,+736288.655,-614659.011,+736288.655,-616059.011,+697088.655,-616059.011,+697088.655,-614659.011,+694288.655,-614659.011,+694288.655,-616059.011,+655088.655,-616059.011,+655088.655,-614659.011,+652288.655,-614659.011,+652288.655,-616059.011,+613088.655,-616059.011,+613088.655,-614659.011,+610288.655,-614659.011,+610288.655,-616059.011,+582288.655,-616059.011" />
<polygon id="LC011" points="+1255688.655,-530659.011,+1282638.655,-530659.011,+1282638.655,-533459.011,+1285438.655,-533459.011,+1285438.655,-573009.011,+1282638.655,-573009.011,+1282638.655,-575109.011,+1285438.655,-575109.011,+1285438.655,-614659.011,+1282638.655,-614659.011,+1282638.655,-617351.350,+1243088.655,-617351.350,+1243088.655,-614659.011,+1240288.655,-614659.011,+1240288.655,-617351.350,+1227884.554,-617351.350,+1211084.554,-617351.350,+1198288.655,-617351.350,+1198288.655,-614659.011,+1195488.655,-614659.011,+1195488.655,-575109.011,+1197945.778,-575109.011,+1197945.778,-573009.011,+1195488.655,-573009.011,+1195488.655,-533459.011,+1198288.655,-533459.011,+1198288.655,-530659.011,+1224188.655,-530659.011,+1224188.655,-533459.011,+1226988.655,-533459.011,+1226988.655,-530659.011,+1252888.655,-530659.011,+1252888.655,-533459.011,+1255688.655,-533459.011" />
<polygon id="LC012" points="+903938.655,-614659.011,+903938.655,-617459.011,+907438.655,-617459.011,+907438.655,-622180.568,+907438.655,-623059.011,+907174.268,-623059.011,+903302.802,-623059.011,+894937.802,-623059.011,+874479.321,-623059.011,+874479.321,-616059.011,+874479.321,-606163.070,+907438.655,-606163.070,+907438.655,-614659.011" />
<polygon id="LC013" points="+908838.655,-617459.011,+908838.655,-614659.011,+908838.655,-605918.070,+908838.655,-601147.586,+924588.655,-601147.586,+941411.272,-601147.586,+941411.272,-616059.011,+941411.272,-621935.568,+908838.655,-621935.568" />
<polygon id="LC014" points="+908838.655,-600447.586,+908838.655,-585214.241,+912338.655,-585214.241,+912338.655,-591514.241,+924238.655,-591514.241,+924238.655,-600447.586" />
<polygon id="LC015" points="+913038.655,-585214.241,+924238.655,-585214.241,+924238.655,-590814.241,+913038.655,-590814.241" />
<polygon id="LC016" points="+941411.272,-591514.241,+941411.272,-600447.586,+924938.655,-600447.586,+924938.655,-591514.241,+936383.655,-591514.241" />
<polygon id="LC017" points="+927388.655,-585214.241,+936138.655,-585214.241,+936138.655,-590814.241,+924938.655,-590814.241,+924938.655,-585214.241" />
<polygon id="LC018" points="+941411.272,-585214.241,+941411.272,-590814.241,+936628.655,-590814.241,+936628.655,-585214.241" />
<polygon id="LC019" points="+908838.655,-584514.241,+908838.655,-575109.011,+908838.655,-574759.011,+916083.655,-574759.011,+927038.655,-574759.011,+927038.655,-584514.241,+924588.655,-584514.241,+912688.655,-584514.241" />
<polygon id="LC020" points="+941411.272,-574759.011,+941411.272,-584514.241,+936383.655,-584514.241,+927738.655,-584514.241,+927738.655,-574759.011" />
<polygon id="LC021" points="+874479.321,-533459.011,+877688.655,-533459.011,+877688.655,-530659.011,+879788.655,-530659.011,+879788.655,-526319.011,+907438.655,-526319.011,+907438.655,-543959.011,+874479.321,-543959.011" />
<polygon id="LC022" points="+526288.655,-617459.011,+496469.171,-617459.011,+496469.171,-589459.011,+496469.171,-580289.011,+498779.171,-580289.011,+498779.171,-578189.011,+496469.171,-578189.011,+496469.171,-572834.011,+528474.423,-572834.011,+562058.655,-572834.011,+579138.655,-572834.011,+579138.655,-575284.011,+581238.655,-575284.011,+581238.655,-614659.011,+579488.655,-614659.011,+579488.655,-617459.011,+571088.655,-617459.011,+571088.655,-614659.011,+568288.655,-614659.011,+568288.655,-617459.011,+529088.655,-617459.011,+529088.655,-614659.011,+526288.655,-614659.011" />
<polygon id="LC023" points="+581238.655,-556419.011,+581238.655,-571574.011,+579138.655,-571574.011,+562688.655,-571574.011,+562688.655,-556419.011" />
<polygon id="LC024" points="+581238.655,-533459.011,+581238.655,-555159.011,+562688.655,-555159.011,+562688.655,-533459.011,+562688.655,-530659.011,+581238.655,-530659.011" />
<polygon id="LC025" points="+561428.655,-533459.011,+561428.655,-555789.011,+561428.655,-571574.011,+529104.423,-571574.011,+529104.423,-560969.011,+529104.423,-533459.011,+529095.806,-533459.011,+529095.806,-530659.011,+535948.655,-530659.011,+556948.655,-530659.011,+559888.655,-530659.011,+559888.655,-533459.011" />
<polygon id="LC026" points="+527844.423,-533459.011,+527844.423,-560339.011,+512288.655,-560339.011,+512288.655,-530659.011,+526295.806,-530659.011,+526295.806,-533459.011" />
<polygon id="LC027" points="+511238.655,-530134.011,+511238.655,-560339.011,+495839.171,-560339.011,+483658.655,-560339.011,+483658.655,-526284.011,+511238.655,-526284.011" />
<polygon id="LC028" points="+400428.655,-573009.011,+400428.655,-533459.011,+402528.655,-533459.011,+402528.655,-530659.011,+422338.655,-530659.011,+422338.655,-533459.011,+425138.655,-533459.011,+425138.655,-530659.011,+450338.655,-530659.011,+450338.655,-533459.011,+453138.655,-533459.011,+453138.655,-546549.011,+470148.655,-546549.011,+470148.655,-575039.011,+467698.655,-575039.011,+467698.655,-578189.011,+470148.655,-578189.011,+470148.655,-580117.601,+427238.655,-580117.601,+412993.655,-580117.601,+400428.655,-580117.601,+400428.655,-575109.011,+402878.655,-575109.011,+402878.655,-573009.011" />
<polygon id="LC029" points="+527844.423,-571574.011,+496469.171,-571574.011,+496469.171,-561599.011,+511763.655,-561599.011,+527844.423,-561599.011" />
<polygon id="LC030" points="+484288.655,-617459.011,+483588.655,-617459.011,+483588.655,-608079.011,+483588.655,-589459.011,+495209.171,-589459.011,+495209.171,-617459.011,+487088.655,-617459.011,+487088.655,-614659.011,+484288.655,-614659.011" />
<polygon id="LC031" points="+469588.655,-617459.011,+452438.655,-617459.011,+452438.655,-591699.011,+469588.655,-591699.011" />
<polygon id="LC032" points="+442288.655,-617459.011,+427588.655,-617459.011,+427588.655,-615359.011,+427588.655,-604442.217,+433352.104,-604442.217,+439442.104,-604442.217,+445637.104,-604442.217,+445637.104,-591699.011,+451388.655,-591699.011,+451388.655,-617459.011,+445088.655,-617459.011,+445088.655,-614659.011,+442288.655,-614659.011" />
<polygon id="LC033" points="+439687.104,-591699.011,+445147.104,-591699.011,+445147.104,-603952.217,+439687.104,-603952.217" />
<polygon id="LC034" points="+433597.104,-591699.011,+439197.104,-591699.011,+439197.104,-603952.217,+433597.104,-603952.217" />
<polygon id="LC035" points="+427588.655,-591699.011,+433107.104,-591699.011,+433107.104,-603952.217,+427588.655,-603952.217" />
<polygon id="LC036" points="+400428.655,-614659.011,+400428.655,-605113.622,+413238.655,-605113.622,+413238.655,-598918.622,+413238.655,-592854.011,+413238.655,-586799.011,+413238.655,-580817.601,+426888.655,-580817.601,+426888.655,-591174.011,+426888.655,-604197.217,+426888.655,-615359.011,+424788.655,-615359.011,+424788.655,-617459.011,+402528.655,-617459.011,+402528.655,-614659.011" />
<polygon id="LC037" points="+400428.655,-586554.011,+400428.655,-580817.601,+412748.655,-580817.601,+412748.655,-586554.011" />
<polygon id="LC038" points="+400428.655,-592609.011,+400428.655,-587044.011,+412748.655,-587044.011,+412748.655,-592609.011" />
<polygon id="LC039" points="+400428.655,-598673.622,+400428.655,-593099.011,+412748.655,-593099.011,+412748.655,-598673.622" />
<polygon id="LC040" points="+400428.655,-604623.622,+400428.655,-599163.622,+412748.655,-599163.622,+412748.655,-604623.622" />
<polygon id="LC041" points="+470148.655,-526284.011,+470148.655,-546059.011,+453628.655,-546059.011,+453628.655,-533459.011,+453628.655,-530134.011,+453628.655,-526284.011" />
<polygon id="LC050" points="+355345.213,-597207.695,+386845.213,-597207.695,+386845.213,-650687.695,+355345.213,-650687.695" />

</svg>