<!--
Created with Chapman Taylor Dynamo SVG exporter
byabear@chapmantaylor.com

Revit Source File:
C:\Users\un1216\OneDrive - ENGIE\BIM\9 - Répertoire de travail\11 - RATP Boissy Leger\Temp\01_MAQUETTE GABARIT\RATP_BOISSY_GAB_BIM.rvt

Date:
07/05/2020 16:16:42
-->

<svg xmlns="http://www.w3.org/2000/svg" class="gen-by-CTA-dyn-Synoptic-for-PowerBI" viewBox=" 401.0 -1038.0 885.0 550.0 " transform="scale( 0.95 )">

<style>
polygon {
fill: gainsboro;
stroke: red;
stroke-width: 0.1px;
}
</style>

<polygon id="00001" points="+0936.489,-0530.659,+0938.589,-0530.659,+0938.589,-0533.459,+0941.411,-0533.459,+0941.411,-0573.359,+0927.389,-0573.359,+0916.329,-0573.359,+0916.329,-0536.784,+0920.984,-0536.784,+0920.984,-0526.319,+0936.489,-0526.319" />
<polygon id="00002" points="+0907.439,-0544.449,+0907.439,-0572.729,+0904.989,-0572.729,+0874.479,-0572.729,+0874.479,-0544.449" />
<polygon id="00003" points="+0904.989,-0573.219,+0904.989,-0575.109,+0907.439,-0575.109,+0907.439,-0584.864,+0907.439,-0600.798,+0907.439,-0605.673,+0874.479,-0605.673,+0874.479,-0573.219" />
<polygon id="00004" points="+1075.089,-0530.659,+1110.124,-0530.659,+1110.124,-0555.124,+1075.089,-0555.124,+1075.089,-0533.459" />
<polygon id="00005" points="+0604.612,-0845.463,+0649.762,-0845.463,+0649.762,-0869.648,+0604.612,-0869.648" />
<polygon id="00006" points="+0711.955,-0876.256,+0683.675,-0876.256,+0683.675,-0854.836,+0711.955,-0854.836" />
<polygon id="00007" points="+0563.942,-0747.666,+0529.019,-0747.666,+0529.019,-0723.096,+0563.942,-0723.096" />
<polygon id="00008" points="+0907.439,-0828.456,+0907.439,-0842.176,+0883.728,-0842.176,+0883.728,-0818.936,+0904.220,-0818.936,+0904.220,-0825.009,+0904.220,-0827.109,+0904.220,-0828.456" />
<polygon id="00009" points="+0903.939,-0698.659,+0903.939,-0699.569,+0880.784,-0699.569,+0880.784,-0700.059,+0903.939,-0700.059,+0903.939,-0701.459,+0907.439,-0701.459,+0907.439,-0707.549,+0908.839,-0707.549,+0908.839,-0701.459,+0908.839,-0699.624,+0917.715,-0699.624,+0917.715,-0730.103,+0908.839,-0730.103,+0908.839,-0721.409,+0907.439,-0721.409,+0907.439,-0730.103,+0874.399,-0730.103,+0874.399,-0680.683,+0907.439,-0680.683,+0907.439,-0698.659" />
<polygon id="CR001" points="+0920.630,-0488.335,+0920.630,-0502.167,+0907.789,-0502.167,+0907.789,-0488.335,+0920.619,-0488.335" />
<polygon id="CR002" points="+0470.639,-0501.548,+0470.639,-0490.934,+0483.426,-0490.934,+0483.426,-0500.781,+0483.426,-0501.548" />
<polygon id="CR003" points="+1142.639,-0501.548,+1142.639,-0489.564,+1143.382,-0489.564,+1155.939,-0489.564,+1155.939,-0501.548" />
<polygon id="CR004" points="+0908.839,-0573.359,+0908.839,-0572.974,+0908.839,-0544.204,+0908.839,-0526.319,+0920.494,-0526.319,+0920.494,-0536.294,+0915.839,-0536.294,+0915.839,-0573.359" />
<polygon id="CR005" points="+0482.539,-0617.459,+0470.639,-0617.459,+0470.639,-0590.649,+0451.914,-0590.649,+0445.392,-0590.649,+0439.442,-0590.649,+0433.352,-0590.649,+0427.589,-0590.649,+0427.589,-0580.818,+0470.849,-0580.818,+0470.849,-0578.189,+0470.849,-0575.039,+0470.849,-0546.304,+0470.849,-0526.284,+0482.959,-0526.284,+0482.959,-0561.599,+0495.209,-0561.599,+0495.209,-0572.204,+0495.209,-0578.189,+0495.209,-0580.289,+0495.209,-0589.459,+0483.589,-0589.459,+0483.589,-0573.678,+0482.539,-0573.678,+0482.539,-0589.459,+0482.539,-0608.079" />
<polygon id="LC001" points="+0946.639,-1037.809,+0908.839,-1037.809,+0908.839,-1034.309,+0908.139,-1034.309,+0908.139,-1001.969,+0908.839,-1001.969,+0908.839,-0995.109,+0908.839,-0993.009,+0908.839,-0953.459,+0908.839,-0950.659,+0908.839,-0911.109,+0908.839,-0909.009,+0908.839,-0869.459,+0908.839,-0866.659,+0908.839,-0842.421,+0908.839,-0828.211,+0908.839,-0827.109,+0908.839,-0825.009,+0908.839,-0785.459,+0908.839,-0782.659,+0908.839,-0756.759,+0908.139,-0756.759,+0908.139,-0731.769,+0908.839,-0731.769,+0908.839,-0730.593,+0918.205,-0730.593,+0918.205,-0699.134,+0908.839,-0699.134,+0908.839,-0698.659,+0908.839,-0680.438,+0908.839,-0659.109,+0908.839,-0657.009,+0908.839,-0655.189,+0908.139,-0655.189,+0908.139,-0624.375,+0908.139,-0623.689,+0908.839,-0623.689,+0908.839,-0623.304,+0908.839,-0622.426,+0941.901,-0622.426,+0941.901,-0616.059,+0946.289,-0616.059,+0946.289,-0617.459,+0949.089,-0617.459,+0949.089,-0616.059,+0988.289,-0616.059,+0988.289,-0617.459,+0991.089,-0617.459,+0991.089,-0616.059,+1030.289,-0616.059,+1030.289,-0617.459,+1033.089,-0617.459,+1033.089,-0616.059,+1072.289,-0616.059,+1072.289,-0617.459,+1075.089,-0617.459,+1075.089,-0616.059,+1114.289,-0616.059,+1114.289,-0617.459,+1117.089,-0617.459,+1117.089,-0616.059,+1156.289,-0616.059,+1156.289,-0617.459,+1159.089,-0617.459,+1159.089,-0616.059,+1194.439,-0616.059,+1194.439,-0618.401,+1198.289,-0618.401,+1211.085,-0618.401,+1211.085,-0617.351,+1227.885,-0617.351,+1227.885,-0618.401,+1240.289,-0618.401,+1243.089,-0618.401,+1282.639,-0618.401,+1285.439,-0618.401,+1285.439,-0657.009,+1282.639,-0657.009,+1282.639,-0659.109,+1285.439,-0659.109,+1285.439,-0698.659,+1281.939,-0698.659,+1281.939,-0701.459,+1285.439,-0701.459,+1285.439,-0741.009,+1282.639,-0741.009,+1282.639,-0743.109,+1285.439,-0743.109,+1285.439,-0782.659,+1281.939,-0782.659,+1281.939,-0785.459,+1285.439,-0785.459,+1285.439,-0825.009,+1282.639,-0825.009,+1282.639,-0827.109,+1285.439,-0827.109,+1285.439,-0866.659,+1281.939,-0866.659,+1281.939,-0869.459,+1285.439,-0869.459,+1285.439,-0909.009,+1282.639,-0909.009,+1282.639,-0911.109,+1285.439,-0911.109,+1285.439,-0950.659,+1281.939,-0950.659,+1281.939,-0953.459,+1285.439,-0953.459,+1285.439,-0987.409,+1100.646,-0987.409,+1100.646,-1037.809,+1074.739,-1037.809,+1074.739,-1034.309,+1072.639,-1034.309,+1072.639,-1037.809,+1032.739,-1037.809,+1032.739,-1034.309,+1030.639,-1034.309,+1030.639,-1037.809,+0990.739,-1037.809,+0990.739,-1034.309,+0988.639,-1034.309,+0988.639,-1037.809,+0948.739,-1037.809,+0948.739,-1034.309,+0946.639,-1034.309" />
<polygon id="LC002" points="+0652.639,-1037.809,+0602.589,-1037.809,+0602.589,-1034.309,+0600.489,-1034.309,+0600.489,-0995.459,+0600.489,-0993.359,+0600.489,-0953.109,+0600.489,-0951.009,+0600.489,-0920.559,+0600.489,-0917.934,+0600.489,-0913.734,+0599.439,-0913.734,+0599.439,-0917.409,+0596.639,-0917.409,+0585.999,-0917.409,+0585.999,-0906.979,+0583.759,-0906.979,+0566.959,-0906.979,+0564.719,-0906.979,+0564.719,-0917.409,+0563.389,-0917.409,+0530.500,-0917.409,+0529.964,-0917.409,+0529.964,-0917.449,+0527.339,-0917.449,+0489.889,-0917.449,+0487.789,-0917.449,+0487.789,-0906.559,+0487.789,-0903.409,+0483.939,-0903.409,+0451.039,-0903.409,+0448.939,-0903.409,+0445.789,-0903.409,+0445.789,-0904.459,+0424.929,-0904.459,+0424.929,-0903.409,+0402.739,-0903.409,+0400.429,-0903.409,+0400.429,-0869.459,+0403.439,-0869.459,+0403.439,-0866.659,+0400.429,-0866.659,+0400.429,-0827.109,+0402.739,-0827.109,+0402.739,-0825.009,+0400.429,-0825.009,+0400.429,-0785.459,+0402.739,-0785.459,+0402.739,-0782.659,+0400.429,-0782.659,+0400.429,-0743.109,+0402.739,-0743.109,+0402.739,-0741.009,+0400.429,-0741.009,+0400.429,-0701.459,+0402.739,-0701.459,+0402.739,-0698.659,+0400.429,-0698.659,+0400.429,-0659.809,+0402.739,-0659.809,+0402.739,-0657.709,+0400.429,-0657.709,+0400.429,-0618.509,+0402.529,-0618.509,+0424.789,-0618.509,+0427.239,-0618.509,+0442.289,-0618.509,+0445.089,-0618.509,+0451.914,-0618.509,+0470.114,-0618.509,+0483.064,-0618.509,+0484.289,-0618.509,+0487.089,-0618.509,+0495.839,-0618.509,+0526.289,-0618.509,+0529.089,-0618.509,+0568.289,-0618.509,+0571.089,-0618.509,+0579.489,-0618.509,+0582.289,-0618.509,+0582.289,-0616.059,+0610.289,-0616.059,+0610.289,-0617.459,+0613.089,-0617.459,+0613.089,-0616.059,+0652.289,-0616.059,+0652.289,-0617.459,+0655.089,-0617.459,+0655.089,-0616.059,+0694.289,-0616.059,+0694.289,-0617.459,+0697.089,-0617.459,+0697.089,-0616.059,+0736.289,-0616.059,+0736.289,-0617.459,+0739.089,-0617.459,+0739.089,-0616.059,+0778.289,-0616.059,+0778.289,-0617.459,+0781.089,-0617.459,+0781.089,-0616.059,+0820.289,-0616.059,+0820.289,-0617.459,+0823.089,-0617.459,+0823.089,-0616.059,+0862.289,-0616.059,+0862.289,-0617.459,+0865.089,-0617.459,+0865.089,-0616.059,+0873.989,-0616.059,+0873.989,-0623.549,+0894.938,-0623.549,+0894.938,-0671.064,+0903.303,-0671.064,+0903.303,-0623.549,+0908.139,-0623.549,+0908.139,-0655.189,+0907.439,-0655.189,+0907.439,-0657.009,+0904.639,-0657.009,+0904.639,-0659.109,+0907.439,-0659.109,+0907.439,-0680.193,+0873.909,-0680.193,+0873.909,-0730.593,+0907.439,-0730.593,+0907.439,-0731.769,+0908.139,-0731.769,+0908.139,-0756.759,+0907.439,-0756.759,+0907.439,-0782.659,+0903.939,-0782.659,+0903.939,-0785.459,+0907.439,-0785.459,+0907.439,-0825.009,+0904.710,-0825.009,+0904.710,-0818.446,+0883.238,-0818.446,+0883.238,-0842.666,+0907.439,-0842.666,+0907.439,-0866.659,+0903.939,-0866.659,+0903.939,-0869.459,+0907.439,-0869.459,+0907.439,-0909.009,+0904.639,-0909.009,+0904.639,-0911.109,+0907.439,-0911.109,+0907.439,-0950.659,+0903.939,-0950.659,+0903.939,-0953.459,+0907.439,-0953.459,+0907.439,-0993.009,+0904.639,-0993.009,+0904.639,-0995.109,+0907.439,-0995.109,+0907.439,-1001.969,+0908.139,-1001.969,+0908.139,-1034.309,+0907.068,-1034.309,+0905.339,-1034.309,+0905.339,-1037.809,+0864.739,-1037.809,+0864.739,-1034.309,+0862.639,-1034.309,+0862.639,-1037.809,+0822.739,-1037.809,+0822.739,-1034.309,+0820.639,-1034.309,+0820.639,-1037.809,+0780.739,-1037.809,+0780.739,-1034.309,+0778.639,-1034.309,+0778.639,-1037.809,+0738.739,-1037.809,+0738.739,-1034.309,+0736.639,-1034.309,+0736.639,-1037.809,+0696.739,-1037.809,+0696.739,-1034.309,+0694.639,-1034.309,+0694.639,-1037.809,+0654.739,-1037.809,+0654.739,-1034.309,+0652.639,-1034.309" />
<polygon id="LC003" points="+0526.639,-1037.809,+0509.839,-1037.809,+0509.839,-0961.509,+0527.339,-0961.509,+0530.489,-0961.509,+0530.489,-0957.659,+0530.489,-0953.459,+0530.489,-0950.659,+0530.489,-0921.299,+0530.489,-0918.459,+0563.389,-0918.459,+0563.389,-0921.299,+0565.489,-0921.299,+0565.489,-0918.499,+0565.769,-0918.499,+0565.769,-0908.029,+0566.959,-0908.029,+0566.959,-0906.979,+0583.759,-0906.979,+0583.759,-0908.029,+0584.949,-0908.029,+0584.949,-0918.459,+0596.639,-0918.459,+0596.639,-0920.559,+0599.439,-0920.559,+0599.439,-0951.009,+0596.639,-0951.009,+0596.639,-0953.109,+0599.439,-0953.109,+0599.439,-0993.359,+0596.639,-0993.359,+0596.639,-0995.459,+0599.439,-0995.459,+0599.439,-1034.309,+0599.439,-1037.809,+0570.739,-1037.809,+0570.739,-1034.309,+0568.639,-1034.309,+0568.639,-1037.809,+0528.739,-1037.809,+0528.739,-1034.309,+0526.639,-1034.309" />
<polygon id="LC004" points="+0442.639,-1037.809,+0402.039,-1037.809,+0402.039,-1034.309,+0400.429,-1034.309,+0400.429,-0995.109,+0402.739,-0995.109,+0402.739,-0993.009,+0400.429,-0993.009,+0400.429,-0953.459,+0402.739,-0953.459,+0402.739,-0950.659,+0400.429,-0950.659,+0400.429,-0906.559,+0402.739,-0906.559,+0402.739,-0904.459,+0424.929,-0904.459,+0445.789,-0904.459,+0448.939,-0904.459,+0448.939,-0907.259,+0451.039,-0907.259,+0451.039,-0904.459,+0483.939,-0904.459,+0483.939,-0906.559,+0486.739,-0906.559,+0486.739,-0917.974,+0486.739,-0921.259,+0486.739,-0951.009,+0483.939,-0951.009,+0483.939,-0953.109,+0486.739,-0953.109,+0486.739,-0957.659,+0486.739,-0960.984,+0486.739,-0993.359,+0483.939,-0993.359,+0483.939,-0995.459,+0486.739,-0995.459,+0486.739,-1034.309,+0484.639,-1034.309,+0484.639,-1037.809,+0444.739,-1037.809,+0444.739,-1034.309,+0442.639,-1034.309" />
<polygon id="LC005" points="+0487.789,-0951.009,+0487.789,-0921.259,+0489.889,-0921.259,+0489.889,-0918.499,+0527.339,-0918.499,+0527.339,-0921.299,+0529.439,-0921.299,+0529.439,-0950.659,+0525.939,-0950.659,+0525.939,-0953.459,+0529.439,-0953.459,+0529.439,-0957.659,+0527.339,-0957.659,+0527.339,-0960.459,+0509.314,-0960.459,+0489.889,-0960.459,+0489.889,-0957.659,+0487.789,-0957.659,+0487.789,-0953.109" />
<polygon id="LC006" points="+0508.789,-1037.809,+0487.789,-1037.809,+0487.789,-1034.309,+0487.789,-0995.459,+0487.789,-0993.359,+0487.789,-0961.509,+0489.889,-0961.509,+0508.789,-0961.509" />
<polygon id="LC007" points="+0651.939,-0782.659,+0651.939,-0784.059,+0529.439,-0784.059,+0529.439,-0782.659,+0527.689,-0782.659,+0527.689,-0720.359,+0653.689,-0720.359,+0653.689,-0782.659" />
<polygon id="LC008" points="+1114.639,-1037.809,+1100.646,-1037.809,+1100.646,-0987.409,+1285.439,-0987.409,+1285.439,-0993.009,+1282.639,-0993.009,+1282.639,-0995.109,+1285.439,-0995.109,+1285.439,-1034.309,+1283.339,-1034.309,+1283.339,-1037.809,+1242.739,-1037.809,+1242.739,-1034.309,+1240.639,-1034.309,+1240.639,-1037.809,+1200.739,-1037.809,+1200.739,-1034.309,+1198.639,-1034.309,+1198.639,-1037.809,+1158.739,-1037.809,+1158.739,-1034.309,+1156.639,-1034.309,+1156.639,-1037.809,+1116.739,-1037.809,+1116.739,-1034.309,+1114.639,-1034.309" />
<polygon id="LC009" points="+1159.096,-0530.659,+1194.439,-0530.659,+1194.439,-0533.459,+1194.439,-0573.009,+1194.439,-0575.109,+1194.439,-0614.659,+1194.439,-0616.059,+1159.089,-0616.059,+1159.089,-0614.659,+1156.289,-0614.659,+1156.289,-0616.059,+1117.089,-0616.059,+1117.089,-0614.659,+1114.289,-0614.659,+1114.289,-0616.059,+1075.089,-0616.059,+1075.089,-0614.659,+1072.289,-0614.659,+1072.289,-0616.059,+1033.089,-0616.059,+1033.089,-0614.659,+1030.289,-0614.659,+1030.289,-0616.059,+0991.089,-0616.059,+0991.089,-0614.659,+0988.289,-0614.659,+0988.289,-0616.059,+0949.089,-0616.059,+0949.089,-0614.659,+0946.289,-0614.659,+0946.289,-0616.059,+0941.901,-0616.059,+0941.901,-0600.798,+0941.901,-0591.164,+0941.901,-0584.864,+0941.901,-0574.059,+0941.901,-0533.459,+0941.901,-0530.659,+0967.289,-0530.659,+0967.289,-0533.459,+0970.089,-0533.459,+0970.089,-0530.659,+0998.789,-0530.659,+0998.789,-0533.459,+1001.589,-0533.459,+1001.589,-0530.659,+1030.296,-0530.659,+1030.296,-0533.459,+1033.096,-0533.459,+1033.096,-0530.659,+1072.289,-0530.659,+1072.289,-0533.459,+1074.599,-0533.459,+1074.599,-0555.614,+1110.614,-0555.614,+1110.614,-0530.659,+1114.289,-0530.659,+1114.289,-0533.459,+1117.089,-0533.459,+1117.089,-0530.659,+1156.296,-0530.659,+1156.296,-0533.459,+1159.096,-0533.459" />
<polygon id="LC010" points="+0582.289,-0614.659,+0582.289,-0575.284,+0582.289,-0572.204,+0582.289,-0555.789,+0582.289,-0533.459,+0585.089,-0533.459,+0585.089,-0530.659,+0617.289,-0530.659,+0617.289,-0533.459,+0620.089,-0533.459,+0620.089,-0530.659,+0652.296,-0530.659,+0652.296,-0533.459,+0655.096,-0533.459,+0655.096,-0530.659,+0694.289,-0530.659,+0694.289,-0533.459,+0697.089,-0533.459,+0697.089,-0530.659,+0722.149,-0530.659,+0722.149,-0533.459,+0724.949,-0533.459,+0724.949,-0530.659,+0750.149,-0530.659,+0750.149,-0533.459,+0752.949,-0533.459,+0752.949,-0530.659,+0778.289,-0530.659,+0778.289,-0533.459,+0781.089,-0533.459,+0781.089,-0530.659,+0806.149,-0530.659,+0806.149,-0533.459,+0808.949,-0533.459,+0808.949,-0530.659,+0834.289,-0530.659,+0834.289,-0533.459,+0837.089,-0533.459,+0837.089,-0530.659,+0873.989,-0530.659,+0873.989,-0533.459,+0873.989,-0544.204,+0873.989,-0572.974,+0873.989,-0605.918,+0873.989,-0616.059,+0865.089,-0616.059,+0865.089,-0614.659,+0862.289,-0614.659,+0862.289,-0616.059,+0823.089,-0616.059,+0823.089,-0614.659,+0820.289,-0614.659,+0820.289,-0616.059,+0781.089,-0616.059,+0781.089,-0614.659,+0778.289,-0614.659,+0778.289,-0616.059,+0739.089,-0616.059,+0739.089,-0614.659,+0736.289,-0614.659,+0736.289,-0616.059,+0697.089,-0616.059,+0697.089,-0614.659,+0694.289,-0614.659,+0694.289,-0616.059,+0655.089,-0616.059,+0655.089,-0614.659,+0652.289,-0614.659,+0652.289,-0616.059,+0613.089,-0616.059,+0613.089,-0614.659,+0610.289,-0614.659,+0610.289,-0616.059,+0582.289,-0616.059" />
<polygon id="LC011" points="+1255.689,-0530.659,+1282.639,-0530.659,+1282.639,-0533.459,+1285.439,-0533.459,+1285.439,-0573.009,+1282.639,-0573.009,+1282.639,-0575.109,+1285.439,-0575.109,+1285.439,-0614.659,+1282.639,-0614.659,+1282.639,-0617.351,+1243.089,-0617.351,+1243.089,-0614.659,+1240.289,-0614.659,+1240.289,-0617.351,+1227.885,-0617.351,+1211.085,-0617.351,+1198.289,-0617.351,+1198.289,-0614.659,+1195.489,-0614.659,+1195.489,-0575.109,+1197.946,-0575.109,+1197.946,-0573.009,+1195.489,-0573.009,+1195.489,-0533.459,+1198.289,-0533.459,+1198.289,-0530.659,+1224.189,-0530.659,+1224.189,-0533.459,+1226.989,-0533.459,+1226.989,-0530.659,+1252.889,-0530.659,+1252.889,-0533.459,+1255.689,-0533.459" />
<polygon id="LC012" points="+0903.939,-0614.659,+0903.939,-0617.459,+0907.439,-0617.459,+0907.439,-0622.181,+0907.439,-0623.059,+0907.174,-0623.059,+0903.303,-0623.059,+0894.938,-0623.059,+0874.479,-0623.059,+0874.479,-0616.059,+0874.479,-0606.163,+0907.439,-0606.163,+0907.439,-0614.659" />
<polygon id="LC013" points="+0908.839,-0617.459,+0908.839,-0614.659,+0908.839,-0605.918,+0908.839,-0601.148,+0924.589,-0601.148,+0941.411,-0601.148,+0941.411,-0616.059,+0941.411,-0621.936,+0908.839,-0621.936" />
<polygon id="LC014" points="+0908.839,-0600.448,+0908.839,-0585.214,+0912.339,-0585.214,+0912.339,-0591.514,+0924.239,-0591.514,+0924.239,-0600.448" />
<polygon id="LC015" points="+0913.039,-0585.214,+0924.239,-0585.214,+0924.239,-0590.814,+0913.039,-0590.814" />
<polygon id="LC016" points="+0941.411,-0591.514,+0941.411,-0600.448,+0924.939,-0600.448,+0924.939,-0591.514,+0936.384,-0591.514" />
<polygon id="LC017" points="+0927.389,-0585.214,+0936.139,-0585.214,+0936.139,-0590.814,+0924.939,-0590.814,+0924.939,-0585.214" />
<polygon id="LC018" points="+0941.411,-0585.214,+0941.411,-0590.814,+0936.629,-0590.814,+0936.629,-0585.214" />
<polygon id="LC019" points="+0908.839,-0584.514,+0908.839,-0575.109,+0908.839,-0574.759,+0916.084,-0574.759,+0927.039,-0574.759,+0927.039,-0584.514,+0924.589,-0584.514,+0912.689,-0584.514" />
<polygon id="LC020" points="+0941.411,-0574.759,+0941.411,-0584.514,+0936.384,-0584.514,+0927.739,-0584.514,+0927.739,-0574.759" />
<polygon id="LC021" points="+0874.479,-0533.459,+0877.689,-0533.459,+0877.689,-0530.659,+0879.789,-0530.659,+0879.789,-0526.319,+0907.439,-0526.319,+0907.439,-0543.959,+0874.479,-0543.959" />
<polygon id="LC022" points="+0526.289,-0617.459,+0496.469,-0617.459,+0496.469,-0589.459,+0496.469,-0580.289,+0498.779,-0580.289,+0498.779,-0578.189,+0496.469,-0578.189,+0496.469,-0572.834,+0528.474,-0572.834,+0562.059,-0572.834,+0579.139,-0572.834,+0579.139,-0575.284,+0581.239,-0575.284,+0581.239,-0614.659,+0579.489,-0614.659,+0579.489,-0617.459,+0571.089,-0617.459,+0571.089,-0614.659,+0568.289,-0614.659,+0568.289,-0617.459,+0529.089,-0617.459,+0529.089,-0614.659,+0526.289,-0614.659" />
<polygon id="LC023" points="+0581.239,-0556.419,+0581.239,-0571.574,+0579.139,-0571.574,+0562.689,-0571.574,+0562.689,-0556.419" />
<polygon id="LC024" points="+0581.239,-0533.459,+0581.239,-0555.159,+0562.689,-0555.159,+0562.689,-0533.459,+0562.689,-0530.659,+0581.239,-0530.659" />
<polygon id="LC025" points="+0561.429,-0533.459,+0561.429,-0555.789,+0561.429,-0571.574,+0529.104,-0571.574,+0529.104,-0560.969,+0529.104,-0533.459,+0529.096,-0533.459,+0529.096,-0530.659,+0535.949,-0530.659,+0556.949,-0530.659,+0559.889,-0530.659,+0559.889,-0533.459" />
<polygon id="LC026" points="+0527.844,-0533.459,+0527.844,-0560.339,+0512.289,-0560.339,+0512.289,-0530.659,+0526.296,-0530.659,+0526.296,-0533.459" />
<polygon id="LC027" points="+0511.239,-0530.134,+0511.239,-0560.339,+0495.839,-0560.339,+0483.659,-0560.339,+0483.659,-0526.284,+0511.239,-0526.284" />
<polygon id="LC028" points="+0400.429,-0573.009,+0400.429,-0533.459,+0402.529,-0533.459,+0402.529,-0530.659,+0422.339,-0530.659,+0422.339,-0533.459,+0425.139,-0533.459,+0425.139,-0530.659,+0450.339,-0530.659,+0450.339,-0533.459,+0453.139,-0533.459,+0453.139,-0546.549,+0470.149,-0546.549,+0470.149,-0575.039,+0467.699,-0575.039,+0467.699,-0578.189,+0470.149,-0578.189,+0470.149,-0580.118,+0427.239,-0580.118,+0412.994,-0580.118,+0400.429,-0580.118,+0400.429,-0575.109,+0402.879,-0575.109,+0402.879,-0573.009" />
<polygon id="LC029" points="+0527.844,-0571.574,+0496.469,-0571.574,+0496.469,-0561.599,+0511.764,-0561.599,+0527.844,-0561.599" />
<polygon id="LC030" points="+0484.289,-0617.459,+0483.589,-0617.459,+0483.589,-0608.079,+0483.589,-0589.459,+0495.209,-0589.459,+0495.209,-0617.459,+0487.089,-0617.459,+0487.089,-0614.659,+0484.289,-0614.659" />
<polygon id="LC031" points="+0469.589,-0617.459,+0452.439,-0617.459,+0452.439,-0591.699,+0469.589,-0591.699" />
<polygon id="LC032" points="+0442.289,-0617.459,+0427.589,-0617.459,+0427.589,-0615.359,+0427.589,-0604.442,+0433.352,-0604.442,+0439.442,-0604.442,+0445.637,-0604.442,+0445.637,-0591.699,+0451.389,-0591.699,+0451.389,-0617.459,+0445.089,-0617.459,+0445.089,-0614.659,+0442.289,-0614.659" />
<polygon id="LC033" points="+0439.687,-0591.699,+0445.147,-0591.699,+0445.147,-0603.952,+0439.687,-0603.952" />
<polygon id="LC034" points="+0433.597,-0591.699,+0439.197,-0591.699,+0439.197,-0603.952,+0433.597,-0603.952" />
<polygon id="LC035" points="+0427.589,-0591.699,+0433.107,-0591.699,+0433.107,-0603.952,+0427.589,-0603.952" />
<polygon id="LC036" points="+0400.429,-0614.659,+0400.429,-0605.114,+0413.239,-0605.114,+0413.239,-0598.919,+0413.239,-0592.854,+0413.239,-0586.799,+0413.239,-0580.818,+0426.889,-0580.818,+0426.889,-0591.174,+0426.889,-0604.197,+0426.889,-0615.359,+0424.789,-0615.359,+0424.789,-0617.459,+0402.529,-0617.459,+0402.529,-0614.659" />
<polygon id="LC037" points="+0400.429,-0586.554,+0400.429,-0580.818,+0412.749,-0580.818,+0412.749,-0586.554" />
<polygon id="LC038" points="+0400.429,-0592.609,+0400.429,-0587.044,+0412.749,-0587.044,+0412.749,-0592.609" />
<polygon id="LC039" points="+0400.429,-0598.674,+0400.429,-0593.099,+0412.749,-0593.099,+0412.749,-0598.674" />
<polygon id="LC040" points="+0400.429,-0604.624,+0400.429,-0599.164,+0412.749,-0599.164,+0412.749,-0604.624" />
<polygon id="LC041" points="+0470.149,-0526.284,+0470.149,-0546.059,+0453.629,-0546.059,+0453.629,-0533.459,+0453.629,-0530.134,+0453.629,-0526.284" />
<polygon id="LC140" points="+0894.938,-0623.549,+0903.303,-0623.549,+0903.303,-0671.064,+0894.938,-0671.064" />
<polygon id="LC050" points="+0355.345,-0597.208,+0386.845,-0597.208,+0386.845,-0650.688,+0355.345,-0650.688" />


</svg>