<!--
Created with Chapman Taylor Dynamo SVG exporter
byabear@chapmantaylor.com

Revit Source File:
C:\Users\un1216\OneDrive - ENGIE\BIM\9 - Répertoire de travail\11 - RATP Boissy Leger\Temp\01_MAQUETTE GABARIT\RATP_BOISSY_GAB_BIM.rvt

Date:
06/05/2020 16:18:09
-->

<svg xmlns="http://www.w3.org/2000/svg" class="gen-by-CTA-dyn-Synoptic-for-PowerBI" viewBox=" 400429.0 -1037810.0 885010.0 548247.0 " transform="scale( 0.95 )">

<style>
polygon {
fill: gainsboro;
stroke: red;
stroke-width: 0.1px;
}
</style>

<polygon id="00101" points="+903938.655,-530659.011,+903938.655,-533459.011,+907438.655,-533459.011,+907438.655,-567269.011,+867678.655,-567269.011,+867678.655,-530659.011,+879788.655,-530659.011,+879788.655,-525514.011,+907438.655,-525514.011,+907438.655,-530659.011" />
<polygon id="00102" points="+862288.655,-530659.011,+862288.655,-533459.011,+865088.655,-533459.011,+865088.655,-530659.011,+867188.655,-530659.011,+867188.655,-567269.011,+833705.888,-567269.011,+833705.888,-533459.011,+836505.888,-533459.011,+836505.888,-530659.011" />
<polygon id="00103" points="+806288.655,-530659.011,+806288.655,-533459.011,+809088.655,-533459.011,+809088.655,-530659.011,+833215.888,-530659.011,+833215.888,-533459.011,+833215.888,-567269.011,+800758.655,-567269.011,+800758.655,-530659.011" />
<polygon id="00104" points="+778295.806,-530659.011,+778295.806,-533459.011,+781095.806,-533459.011,+781095.806,-530659.011,+800268.655,-530659.011,+800268.655,-567269.011,+782733.655,-567269.011,+775278.655,-567269.011,+775278.655,-530659.011" />
<polygon id="00105" points="+749727.777,-533459.011,+752527.777,-533459.011,+752527.777,-530659.011,+774788.655,-530659.011,+774788.655,-567269.011,+749727.777,-567269.011" />
<polygon id="00106" points="+749237.777,-567269.011,+725088.655,-567269.011,+725088.655,-533459.011,+725088.655,-530659.011,+749237.777,-530659.011,+749237.777,-533459.011" />
<polygon id="00107" points="+694288.655,-530659.011,+694288.655,-533459.011,+697088.655,-533459.011,+697088.655,-530659.011,+722288.655,-530659.011,+722288.655,-533459.011,+724598.655,-533459.011,+724598.655,-567269.011,+674508.318,-567269.011,+674508.318,-530659.011" />
<polygon id="00109" points="+652295.806,-530659.011,+652295.806,-533459.011,+655095.806,-533459.011,+655095.806,-530659.011,+674018.318,-530659.011,+674018.318,-567269.011,+649208.655,-567269.011,+649208.655,-530659.011" />
<polygon id="00110" points="+648718.655,-567269.011,+643923.655,-567269.011,+624196.291,-567269.011,+624196.291,-533459.011,+624196.291,-530659.011,+648718.655,-530659.011" />
<polygon id="00111" points="+588868.655,-530659.011,+588868.655,-533459.011,+591668.655,-533459.011,+591668.655,-530659.011,+598528.655,-530659.011,+598528.655,-533179.011,+599018.655,-533179.011,+599018.655,-530659.011,+620906.291,-530659.011,+620906.291,-533459.011,+623706.291,-533459.011,+623706.291,-567269.011,+619528.655,-567269.011,+619528.655,-567759.011,+598804.112,-567759.011,+598804.112,-558774.930,+598314.112,-558774.930,+598314.112,-566794.624,+598314.112,-567269.011,+573678.655,-567269.011,+573678.655,-530659.011" />
<polygon id="00113" points="+610288.655,-617459.011,+573678.655,-617459.011,+573678.655,-614396.511,+573678.655,-580849.011,+643678.655,-580849.011,+643678.655,-591419.011,+643678.655,-604964.011,+643678.655,-617459.011,+613088.655,-617459.011,+613088.655,-614659.011,+610288.655,-614659.011" />
<polygon id="00114" points="+730268.655,-617459.011,+705768.655,-617459.011,+705768.655,-580849.011,+730268.655,-580849.011" />
<polygon id="00115" points="+736288.655,-617459.011,+730758.655,-617459.011,+730758.655,-580849.011,+757022.782,-580849.011,+757022.782,-617459.011,+739088.655,-617459.011,+739088.655,-614659.011,+736288.655,-614659.011" />
<polygon id="00116" points="+778288.655,-617459.011,+757512.782,-617459.011,+757512.782,-580849.011,+782488.655,-580849.011,+782488.655,-617459.011,+781088.655,-617459.011,+781088.655,-614659.011,+778288.655,-614659.011" />
<polygon id="00117" points="+808178.655,-617459.011,+782978.655,-617459.011,+782978.655,-580849.011,+808178.655,-580849.011" />
<polygon id="00118" points="+820288.655,-617459.011,+808668.655,-617459.011,+808668.655,-580849.011,+858718.655,-580849.011,+858718.655,-617459.011,+823088.655,-617459.011,+823088.655,-614659.011,+820288.655,-614659.011" />
<polygon id="00120" points="+862288.655,-617459.011,+859208.655,-617459.011,+859208.655,-580849.011,+893088.655,-580849.011,+893088.655,-617459.011,+865088.655,-617459.011,+865088.655,-614659.011,+862288.655,-614659.011" />
<polygon id="00121" points="+908068.655,-617459.011,+903588.655,-617459.011,+903588.655,-581782.164,+941738.655,-581782.164,+941738.655,-617459.011,+911568.655,-617459.011,+911568.655,-614659.011,+908068.655,-614659.011" />
<polygon id="00122" points="+946288.655,-530659.011,+946288.655,-533459.011,+949088.655,-533459.011,+949088.655,-530659.011,+974148.655,-530659.011,+974148.655,-566919.011,+942088.655,-566919.011,+936596.545,-566919.011,+936596.545,-530659.011,+937296.545,-530659.011" />
<polygon id="00123" points="+995148.655,-530659.011,+995148.655,-533459.011,+997948.655,-533459.011,+997948.655,-530659.011,+1000468.655,-530659.011,+1000468.655,-566919.011,+974638.655,-566919.011,+974638.655,-530659.011" />
<polygon id="00124" points="+1030295.806,-530659.011,+1030295.806,-533459.011,+1033095.806,-533459.011,+1033095.806,-530659.011,+1035888.655,-530659.011,+1035888.655,-566919.011,+1000958.655,-566919.011,+1000958.655,-530659.011" />
<polygon id="00125" points="+1062212.154,-566919.011,+1036378.655,-566919.011,+1036378.655,-530659.011,+1062212.154,-530659.011" />
<polygon id="00126" points="+1072288.655,-530659.011,+1072288.655,-533459.011,+1075088.655,-533459.011,+1075088.655,-530659.011,+1088878.655,-530659.011,+1088878.655,-566919.011,+1062702.154,-566919.011,+1062702.154,-530659.011" />
<polygon id="00129" points="+1030288.655,-617459.011,+991088.655,-617459.011,+991088.655,-614659.011,+991088.655,-589319.011,+1001627.310,-589319.011,+1001627.310,-581782.164,+1088878.655,-581782.164,+1088878.655,-617459.011,+1075088.655,-617459.011,+1075088.655,-614659.011,+1072288.655,-614659.011,+1072288.655,-617459.011,+1033088.655,-617459.011,+1033088.655,-614659.011,+1030288.655,-614659.011" />
<polygon id="CR101" points="+920626.100,-524814.011,+908690.261,-524814.011,+908690.261,-502124.349,+920626.100,-488281.706,+920626.100,-490868.348" />
<polygon id="CR102" points="+483378.655,-524814.011,+470638.655,-524814.011,+470638.655,-491214.011,+470638.655,-489563.821,+484108.664,-501539.928,+483468.431,-501587.201,+483468.431,-502247.549,+483468.431,-524814.011" />
<polygon id="CR103" points="+1155098.655,-525969.011,+1142638.655,-525969.011,+1142638.655,-492369.011,+1142638.655,-489563.821,+1155098.655,-501599.185" />
<polygon id="CR104" points="+894937.802,-617459.011,+893578.655,-617459.011,+893578.655,-580359.011,+858963.655,-580359.011,+808423.655,-580359.011,+782978.655,-580359.011,+782978.655,-567759.011,+800513.655,-567759.011,+833460.888,-567759.011,+867433.655,-567759.011,+907928.655,-567759.011,+907928.655,-533459.011,+907928.655,-530659.011,+907928.655,-525514.011,+908340.261,-525514.011,+920976.100,-525514.011,+935546.545,-525514.011,+935546.545,-529609.011,+935546.545,-567409.011,+941738.655,-567409.011,+941738.655,-581292.164,+903098.655,-581292.164,+903098.655,-617459.011" />
<polygon id="CR105" points="+1088878.655,-567409.011,+1088878.655,-581292.164,+1001137.310,-581292.164,+1001137.310,-588829.011,+991088.655,-588829.011,+991088.655,-581782.164,+992208.655,-581782.164,+992208.655,-581292.164,+990738.655,-581292.164,+942438.655,-581292.164,+942438.655,-567409.011,+974393.655,-567409.011,+1000713.655,-567409.011,+1036133.655,-567409.011,+1062457.154,-567409.011" />
<polygon id="CR106" points="+894937.802,-618520.178,+894937.802,-618509.011,+903302.802,-618509.011,+903302.802,-618520.178,+903302.802,-671064.264,+894937.802,-671064.264" />
<polygon id="CR107" points="+775033.655,-567759.011,+782488.655,-567759.011,+782488.655,-580359.011,+757267.782,-580359.011,+730513.655,-580359.011,+705523.655,-580359.011,+681828.655,-580359.011,+681828.655,-591069.011,+663033.655,-591069.011,+644168.655,-591069.011,+644168.655,-580604.011,+644168.655,-567759.011,+648963.655,-567759.011,+674263.318,-567759.011,+724843.655,-567759.011,+749482.777,-567759.011" />
<polygon id="CR108" points="+623951.291,-567759.011,+643678.655,-567759.011,+643678.655,-580359.011,+573678.655,-580359.011,+573678.655,-567759.011,+598559.112,-567759.011,+598808.655,-567759.011,+599630.180,-567759.011,+619528.655,-567759.011" />
<polygon id="CR109" points="+482783.655,-617459.011,+470638.655,-617459.011,+470638.655,-580359.011,+463463.655,-580359.011,+457373.655,-580359.011,+451143.655,-580359.011,+445053.655,-580359.011,+438858.655,-580359.011,+431438.655,-580359.011,+431438.655,-574059.011,+431438.655,-567759.011,+438928.655,-567759.011,+445053.655,-567759.011,+451283.655,-567759.011,+457233.655,-567759.011,+463323.655,-567759.011,+470638.655,-567759.011,+470638.655,-554179.011,+470638.655,-525514.011,+483028.655,-525514.011,+483028.655,-530064.011,+483028.655,-533214.011,+483028.655,-567759.011,+489433.655,-567759.011,+495523.655,-567759.011,+501613.655,-567759.011,+507703.655,-567759.011,+514318.655,-567759.011,+572978.655,-567759.011,+572978.655,-580359.011,+514458.655,-580359.011,+508438.655,-580359.011,+502348.655,-580359.011,+496258.655,-580359.011,+490168.655,-580359.011,+482783.655,-580359.011" />
<polygon id="LC101" points="+400428.655,-573009.011,+400428.655,-533459.011,+402734.306,-533459.011,+402734.306,-530659.011,+442218.655,-530659.011,+442218.655,-533459.011,+442638.655,-533459.011,+442638.655,-543119.011,+438578.655,-543119.011,+438578.655,-554179.011,+438578.655,-567059.011,+430738.655,-567059.011,+430738.655,-573709.011,+402738.655,-573709.011,+402738.655,-573009.011" />
<polygon id="LC102" points="+443338.655,-533459.011,+445018.655,-533459.011,+445018.655,-530659.011,+455238.655,-530659.011,+455238.655,-525514.011,+469938.655,-525514.011,+469938.655,-553934.011,+463323.655,-553934.011,+457233.655,-553934.011,+451283.655,-553934.011,+445053.655,-553934.011,+439278.655,-553934.011,+439278.655,-543819.011,+443338.655,-543819.011" />
<polygon id="LC103" points="+444808.655,-567059.011,+439278.655,-567059.011,+439278.655,-554424.011,+444808.655,-554424.011" />
<polygon id="LC104" points="+451038.655,-567059.011,+445298.655,-567059.011,+445298.655,-554424.011,+451038.655,-554424.011" />
<polygon id="LC105" points="+456988.655,-567059.011,+451528.655,-567059.011,+451528.655,-554424.011,+456988.655,-554424.011" />
<polygon id="LC106" points="+463078.655,-567059.011,+457478.655,-567059.011,+457478.655,-554424.011,+463078.655,-554424.011" />
<polygon id="LC107" points="+438508.655,-617459.011,+402738.655,-617459.011,+402738.655,-614659.011,+400428.655,-614659.011,+400428.655,-575109.011,+402738.655,-575109.011,+402738.655,-574409.011,+430738.655,-574409.011,+430738.655,-581059.011,+438508.655,-581059.011,+438508.655,-593554.011" />
<polygon id="LC108" points="+439208.655,-581059.011,+444808.655,-581059.011,+444808.655,-593309.011,+439208.655,-593309.011" />
<polygon id="LC109" points="+445298.655,-581059.011,+450898.655,-581059.011,+450898.655,-593309.011,+445298.655,-593309.011" />
<polygon id="LC110" points="+451388.655,-581059.011,+457128.655,-581059.011,+457128.655,-593309.011,+451388.655,-593309.011" />
<polygon id="LC111" points="+457618.655,-581059.011,+463218.655,-581059.011,+463218.655,-593309.011,+457618.655,-593309.011" />
<polygon id="LC112" points="+441938.655,-617459.011,+439208.655,-617459.011,+439208.655,-593799.011,+445053.655,-593799.011,+451143.655,-593799.011,+457373.655,-593799.011,+463708.655,-593799.011,+463708.655,-581059.011,+469938.655,-581059.011,+469938.655,-617459.011,+445438.655,-617459.011,+445438.655,-614659.011,+441938.655,-614659.011" />
<polygon id="LC113" points="+469938.655,-554424.011,+469938.655,-567059.011,+463568.655,-567059.011,+463568.655,-554424.011" />
<polygon id="LC114" points="+484288.655,-614659.011,+484288.655,-617459.011,+483483.655,-617459.011,+483483.655,-581059.011,+489923.655,-581059.011,+489923.655,-593799.011,+496258.655,-593799.011,+502348.655,-593799.011,+508438.655,-593799.011,+514108.655,-593799.011,+514108.655,-617459.011,+495607.046,-617459.011,+495607.046,-603306.047,+494907.046,-603306.047,+494907.046,-617459.011,+487088.655,-617459.011,+487088.655,-614659.011" />
<polygon id="LC115" points="+490413.655,-581059.011,+496013.655,-581059.011,+496013.655,-593309.011,+490413.655,-593309.011" />
<polygon id="LC116" points="+496503.655,-581059.011,+502103.655,-581059.011,+502103.655,-593309.011,+496503.655,-593309.011" />
<polygon id="LC117" points="+502593.655,-581059.011,+508193.655,-581059.011,+508193.655,-593309.011,+502593.655,-593309.011" />
<polygon id="LC118" points="+508683.655,-581059.011,+514108.655,-581059.011,+514108.655,-593309.011,+508683.655,-593309.011" />
<polygon id="LC119" points="+526288.655,-614659.011,+526288.655,-617459.011,+514808.655,-617459.011,+514808.655,-593554.011,+514808.655,-581059.011,+572978.655,-581059.011,+572978.655,-614396.511,+568708.655,-614396.511,+568708.655,-617459.011,+529088.655,-617459.011,+529088.655,-614659.011" />
<polygon id="LC120" points="+483728.655,-533214.011,+487158.655,-533214.011,+487158.655,-530064.011,+483728.655,-530064.011,+483728.655,-525514.011,+483818.431,-525514.011,+510188.655,-525514.011,+510188.655,-530659.011,+513968.655,-530659.011,+513968.655,-554319.011,+507703.655,-554319.011,+501613.655,-554319.011,+495523.655,-554319.011,+489188.655,-554319.011,+489188.655,-567059.011,+483728.655,-567059.011" />
<polygon id="LC121" points="+495278.655,-567059.011,+489678.655,-567059.011,+489678.655,-554809.011,+495278.655,-554809.011" />
<polygon id="LC122" points="+501368.655,-567059.011,+495768.655,-567059.011,+495768.655,-554809.011,+501368.655,-554809.011" />
<polygon id="LC123" points="+507458.655,-567059.011,+501858.655,-567059.011,+501858.655,-554809.011,+507458.655,-554809.011" />
<polygon id="LC124" points="+513968.655,-567059.011,+507948.655,-567059.011,+507948.655,-554809.011,+513968.655,-554809.011" />
<polygon id="LC125" points="+526295.806,-530659.011,+526295.806,-533459.011,+529095.806,-533459.011,+529095.806,-530659.011,+557368.655,-530659.011,+557368.655,-533459.011,+560168.655,-533459.011,+560168.655,-530659.011,+572978.655,-530659.011,+572978.655,-567059.011,+514668.655,-567059.011,+514668.655,-554564.011,+514668.655,-530659.011" />
<polygon id="LC126" points="+644168.655,-591769.011,+662788.655,-591769.011,+662788.655,-604719.011,+655998.655,-604719.011,+655998.655,-611089.011,+651098.655,-611089.011,+651098.655,-604719.011,+644168.655,-604719.011" />
<polygon id="LC127" points="+662788.655,-617459.011,+656488.655,-617459.011,+656488.655,-611334.011,+656488.655,-605209.011,+662788.655,-605209.011" />
<polygon id="LC128" points="+650608.655,-617459.011,+644168.655,-617459.011,+644168.655,-605209.011,+650608.655,-605209.011,+650608.655,-611334.011" />
<polygon id="LC129" points="+663278.655,-591769.011,+681828.655,-591769.011,+681828.655,-604719.011,+675913.655,-604719.011,+669403.655,-604719.011,+663278.655,-604719.011" />
<polygon id="LC130" points="+669158.655,-617459.011,+663278.655,-617459.011,+663278.655,-605209.011,+669158.655,-605209.011" />
<polygon id="LC131" points="+675668.655,-617459.011,+669648.655,-617459.011,+669648.655,-605209.011,+675668.655,-605209.011" />
<polygon id="LC132" points="+681828.655,-617459.011,+676158.655,-617459.011,+676158.655,-605209.011,+681828.655,-605209.011" />
<polygon id="LC133" points="+694288.655,-617459.011,+682318.655,-617459.011,+682318.655,-604964.011,+682318.655,-591419.011,+682318.655,-580849.011,+705278.655,-580849.011,+705278.655,-617459.011,+697088.655,-617459.011,+697088.655,-614659.011,+694288.655,-614659.011" />
<polygon id="LC134" points="+946288.655,-617459.011,+942438.655,-617459.011,+942438.655,-581782.164,+990388.655,-581782.164,+990388.655,-589074.011,+990388.655,-614659.011,+988288.655,-614659.011,+988288.655,-617459.011,+949088.655,-617459.011,+949088.655,-614659.011,+946288.655,-614659.011" />
<polygon id="LC135" points="+1240288.655,-614659.011,+1240288.655,-617459.011,+1198288.655,-617459.011,+1198288.655,-614659.011,+1195488.655,-614659.011,+1195488.655,-617459.011,+1159088.655,-617459.011,+1159088.655,-614659.011,+1156288.655,-614659.011,+1156288.655,-617459.011,+1117088.655,-617459.011,+1117088.655,-614659.011,+1114288.655,-614659.011,+1114288.655,-617459.011,+1089578.655,-617459.011,+1089578.655,-581537.164,+1089578.655,-567164.011,+1089578.655,-530659.011,+1114288.655,-530659.011,+1114288.655,-533459.011,+1117088.655,-533459.011,+1117088.655,-530659.011,+1127938.655,-530659.011,+1127938.655,-526669.011,+1142288.655,-526669.011,+1155448.655,-526669.011,+1183868.655,-526669.011,+1183868.655,-530659.011,+1195488.655,-530659.011,+1195488.655,-533459.011,+1198288.655,-533459.011,+1198288.655,-530659.011,+1224188.655,-530659.011,+1224188.655,-533459.011,+1226988.655,-533459.011,+1226988.655,-530659.011,+1252888.655,-530659.011,+1252888.655,-533459.011,+1255688.655,-533459.011,+1255688.655,-530659.011,+1282638.655,-530659.011,+1282638.655,-533459.011,+1285438.655,-533459.011,+1285438.655,-573009.011,+1282638.655,-573009.011,+1282638.655,-575109.011,+1285438.655,-575109.011,+1285438.655,-614659.011,+1282638.655,-614659.011,+1282638.655,-617459.011,+1243088.655,-617459.011,+1243088.655,-614659.011" />

</svg>