<!--
Created with Chapman Taylor Dynamo SVG exporter
byabear@chapmantaylor.com

Revit Source File:
C:\Users\un1216\OneDrive - ENGIE\BIM\9 - Répertoire de travail\11 - RATP Boissy Leger\Temp\01_MAQUETTE GABARIT\RATP_BOISSY_GAB_BIM.rvt

Date:
07/05/2020 16:16:48
-->

<svg xmlns="http://www.w3.org/2000/svg" class="gen-by-CTA-dyn-Synoptic-for-PowerBI" viewBox=" 401.0 -672.0 885.0 183.0 " transform="scale( 0.95 )">

<style>
polygon {
fill: gainsboro;
stroke: red;
stroke-width: 0.1px;
}
</style>

<polygon id="00101" points="+0903.939,-0530.659,+0903.939,-0533.459,+0907.439,-0533.459,+0907.439,-0567.269,+0867.679,-0567.269,+0867.679,-0530.659,+0879.789,-0530.659,+0879.789,-0525.514,+0907.439,-0525.514,+0907.439,-0530.659" />
<polygon id="00102" points="+0862.289,-0530.659,+0862.289,-0533.459,+0865.089,-0533.459,+0865.089,-0530.659,+0867.189,-0530.659,+0867.189,-0567.269,+0833.706,-0567.269,+0833.706,-0533.459,+0836.506,-0533.459,+0836.506,-0530.659" />
<polygon id="00103" points="+0806.289,-0530.659,+0806.289,-0533.459,+0809.089,-0533.459,+0809.089,-0530.659,+0833.216,-0530.659,+0833.216,-0533.459,+0833.216,-0567.269,+0800.759,-0567.269,+0800.759,-0530.659" />
<polygon id="00104" points="+0778.296,-0530.659,+0778.296,-0533.459,+0781.096,-0533.459,+0781.096,-0530.659,+0800.269,-0530.659,+0800.269,-0567.269,+0782.734,-0567.269,+0775.279,-0567.269,+0775.279,-0530.659" />
<polygon id="00105" points="+0749.728,-0533.459,+0752.528,-0533.459,+0752.528,-0530.659,+0774.789,-0530.659,+0774.789,-0567.269,+0749.728,-0567.269" />
<polygon id="00106" points="+0749.238,-0567.269,+0725.089,-0567.269,+0725.089,-0533.459,+0725.089,-0530.659,+0749.238,-0530.659,+0749.238,-0533.459" />
<polygon id="00107" points="+0694.289,-0530.659,+0694.289,-0533.459,+0697.089,-0533.459,+0697.089,-0530.659,+0722.289,-0530.659,+0722.289,-0533.459,+0724.599,-0533.459,+0724.599,-0567.269,+0674.508,-0567.269,+0674.508,-0530.659" />
<polygon id="00109" points="+0652.296,-0530.659,+0652.296,-0533.459,+0655.096,-0533.459,+0655.096,-0530.659,+0674.018,-0530.659,+0674.018,-0567.269,+0649.209,-0567.269,+0649.209,-0530.659" />
<polygon id="00110" points="+0648.719,-0567.269,+0643.924,-0567.269,+0624.196,-0567.269,+0624.196,-0533.459,+0624.196,-0530.659,+0648.719,-0530.659" />
<polygon id="00111" points="+0588.869,-0530.659,+0588.869,-0533.459,+0591.669,-0533.459,+0591.669,-0530.659,+0598.529,-0530.659,+0598.529,-0533.179,+0599.019,-0533.179,+0599.019,-0530.659,+0620.906,-0530.659,+0620.906,-0533.459,+0623.706,-0533.459,+0623.706,-0567.269,+0619.529,-0567.269,+0619.529,-0567.759,+0598.804,-0567.759,+0598.804,-0558.775,+0598.314,-0558.775,+0598.314,-0566.795,+0598.314,-0567.269,+0573.679,-0567.269,+0573.679,-0530.659" />
<polygon id="00113" points="+0610.289,-0617.459,+0573.679,-0617.459,+0573.679,-0614.397,+0573.679,-0580.849,+0643.679,-0580.849,+0643.679,-0591.419,+0643.679,-0604.964,+0643.679,-0617.459,+0613.089,-0617.459,+0613.089,-0614.659,+0610.289,-0614.659" />
<polygon id="00114" points="+0730.269,-0617.459,+0705.769,-0617.459,+0705.769,-0580.849,+0730.269,-0580.849" />
<polygon id="00115" points="+0736.289,-0617.459,+0730.759,-0617.459,+0730.759,-0580.849,+0757.023,-0580.849,+0757.023,-0617.459,+0739.089,-0617.459,+0739.089,-0614.659,+0736.289,-0614.659" />
<polygon id="00116" points="+0778.289,-0617.459,+0757.513,-0617.459,+0757.513,-0580.849,+0782.489,-0580.849,+0782.489,-0617.459,+0781.089,-0617.459,+0781.089,-0614.659,+0778.289,-0614.659" />
<polygon id="00117" points="+0808.179,-0617.459,+0782.979,-0617.459,+0782.979,-0580.849,+0808.179,-0580.849" />
<polygon id="00118" points="+0820.289,-0617.459,+0808.669,-0617.459,+0808.669,-0580.849,+0858.719,-0580.849,+0858.719,-0617.459,+0823.089,-0617.459,+0823.089,-0614.659,+0820.289,-0614.659" />
<polygon id="00120" points="+0862.289,-0617.459,+0859.209,-0617.459,+0859.209,-0580.849,+0893.089,-0580.849,+0893.089,-0617.459,+0865.089,-0617.459,+0865.089,-0614.659,+0862.289,-0614.659" />
<polygon id="00121" points="+0908.069,-0617.459,+0903.589,-0617.459,+0903.589,-0581.782,+0941.739,-0581.782,+0941.739,-0617.459,+0911.569,-0617.459,+0911.569,-0614.659,+0908.069,-0614.659" />
<polygon id="00122" points="+0946.289,-0530.659,+0946.289,-0533.459,+0949.089,-0533.459,+0949.089,-0530.659,+0974.149,-0530.659,+0974.149,-0566.919,+0942.089,-0566.919,+0936.597,-0566.919,+0936.597,-0530.659,+0937.297,-0530.659" />
<polygon id="00123" points="+0995.149,-0530.659,+0995.149,-0533.459,+0997.949,-0533.459,+0997.949,-0530.659,+1000.469,-0530.659,+1000.469,-0566.919,+0974.639,-0566.919,+0974.639,-0530.659" />
<polygon id="00124" points="+1030.296,-0530.659,+1030.296,-0533.459,+1033.096,-0533.459,+1033.096,-0530.659,+1035.889,-0530.659,+1035.889,-0566.919,+1000.959,-0566.919,+1000.959,-0530.659" />
<polygon id="00125" points="+1062.212,-0566.919,+1036.379,-0566.919,+1036.379,-0530.659,+1062.212,-0530.659" />
<polygon id="00126" points="+1072.289,-0530.659,+1072.289,-0533.459,+1075.089,-0533.459,+1075.089,-0530.659,+1088.879,-0530.659,+1088.879,-0566.919,+1062.702,-0566.919,+1062.702,-0530.659" />
<polygon id="00129" points="+1030.289,-0617.459,+0991.089,-0617.459,+0991.089,-0614.659,+0991.089,-0589.319,+1001.627,-0589.319,+1001.627,-0581.782,+1088.879,-0581.782,+1088.879,-0617.459,+1075.089,-0617.459,+1075.089,-0614.659,+1072.289,-0614.659,+1072.289,-0617.459,+1033.089,-0617.459,+1033.089,-0614.659,+1030.289,-0614.659" />
<polygon id="00130" points="+0568.437,-0760.013,+0568.437,-0766.138,+0568.437,-0780.523,+0528.745,-0780.523,+0528.745,-0752.015,+0553.597,-0752.015,+0553.597,-0760.013" />
<polygon id="00131" points="+0528.745,-0723.096,+0577.747,-0723.096,+0577.747,-0765.893,+0568.927,-0765.893,+0568.927,-0759.523,+0554.087,-0759.523,+0554.087,-0751.525,+0528.745,-0751.525" />
<polygon id="CR101" points="+0920.626,-0524.814,+0908.690,-0524.814,+0908.690,-0502.124,+0920.626,-0488.282,+0920.626,-0490.868" />
<polygon id="CR102" points="+0483.379,-0524.814,+0470.639,-0524.814,+0470.639,-0491.214,+0470.639,-0489.564,+0484.109,-0501.540,+0483.468,-0501.587,+0483.468,-0502.248,+0483.468,-0524.814" />
<polygon id="CR103" points="+1155.099,-0525.969,+1142.639,-0525.969,+1142.639,-0492.369,+1142.639,-0489.564,+1155.099,-0501.599" />
<polygon id="CR104" points="+0894.938,-0617.459,+0893.579,-0617.459,+0893.579,-0580.359,+0858.964,-0580.359,+0808.424,-0580.359,+0782.979,-0580.359,+0782.979,-0567.759,+0800.514,-0567.759,+0833.461,-0567.759,+0867.434,-0567.759,+0907.929,-0567.759,+0907.929,-0533.459,+0907.929,-0530.659,+0907.929,-0525.514,+0908.340,-0525.514,+0920.976,-0525.514,+0935.547,-0525.514,+0935.547,-0529.609,+0935.547,-0567.409,+0941.739,-0567.409,+0941.739,-0581.292,+0903.099,-0581.292,+0903.099,-0617.459" />
<polygon id="CR105" points="+1088.879,-0567.409,+1088.879,-0581.292,+1001.137,-0581.292,+1001.137,-0588.829,+0991.089,-0588.829,+0991.089,-0581.782,+0992.209,-0581.782,+0992.209,-0581.292,+0990.739,-0581.292,+0942.439,-0581.292,+0942.439,-0567.409,+0974.394,-0567.409,+1000.714,-0567.409,+1036.134,-0567.409,+1062.457,-0567.409" />
<polygon id="CR106" points="+0894.938,-0618.520,+0894.938,-0618.509,+0903.303,-0618.509,+0903.303,-0618.520,+0903.303,-0671.064,+0894.938,-0671.064" />
<polygon id="CR107" points="+0775.034,-0567.759,+0782.489,-0567.759,+0782.489,-0580.359,+0757.268,-0580.359,+0730.514,-0580.359,+0705.524,-0580.359,+0681.829,-0580.359,+0681.829,-0591.069,+0663.034,-0591.069,+0644.169,-0591.069,+0644.169,-0580.604,+0644.169,-0567.759,+0648.964,-0567.759,+0674.263,-0567.759,+0724.844,-0567.759,+0749.483,-0567.759" />
<polygon id="CR108" points="+0623.951,-0567.759,+0643.679,-0567.759,+0643.679,-0580.359,+0573.679,-0580.359,+0573.679,-0567.759,+0598.559,-0567.759,+0598.809,-0567.759,+0599.630,-0567.759,+0619.529,-0567.759" />
<polygon id="CR109" points="+0482.784,-0617.459,+0470.639,-0617.459,+0470.639,-0580.359,+0463.464,-0580.359,+0457.374,-0580.359,+0451.144,-0580.359,+0445.054,-0580.359,+0438.859,-0580.359,+0431.439,-0580.359,+0431.439,-0574.059,+0431.439,-0567.759,+0438.929,-0567.759,+0445.054,-0567.759,+0451.284,-0567.759,+0457.234,-0567.759,+0463.324,-0567.759,+0470.639,-0567.759,+0470.639,-0554.179,+0470.639,-0525.514,+0483.029,-0525.514,+0483.029,-0530.064,+0483.029,-0533.214,+0483.029,-0567.759,+0489.434,-0567.759,+0495.524,-0567.759,+0501.614,-0567.759,+0507.704,-0567.759,+0514.319,-0567.759,+0572.979,-0567.759,+0572.979,-0580.359,+0514.459,-0580.359,+0508.439,-0580.359,+0502.349,-0580.359,+0496.259,-0580.359,+0490.169,-0580.359,+0482.784,-0580.359" />
<polygon id="LC101" points="+0400.429,-0573.009,+0400.429,-0533.459,+0402.734,-0533.459,+0402.734,-0530.659,+0442.219,-0530.659,+0442.219,-0533.459,+0442.639,-0533.459,+0442.639,-0543.119,+0438.579,-0543.119,+0438.579,-0554.179,+0438.579,-0567.059,+0430.739,-0567.059,+0430.739,-0573.709,+0402.739,-0573.709,+0402.739,-0573.009" />
<polygon id="LC102" points="+0443.339,-0533.459,+0445.019,-0533.459,+0445.019,-0530.659,+0455.239,-0530.659,+0455.239,-0525.514,+0469.939,-0525.514,+0469.939,-0553.934,+0463.324,-0553.934,+0457.234,-0553.934,+0451.284,-0553.934,+0445.054,-0553.934,+0439.279,-0553.934,+0439.279,-0543.819,+0443.339,-0543.819" />
<polygon id="LC103" points="+0444.809,-0567.059,+0439.279,-0567.059,+0439.279,-0554.424,+0444.809,-0554.424" />
<polygon id="LC104" points="+0451.039,-0567.059,+0445.299,-0567.059,+0445.299,-0554.424,+0451.039,-0554.424" />
<polygon id="LC105" points="+0456.989,-0567.059,+0451.529,-0567.059,+0451.529,-0554.424,+0456.989,-0554.424" />
<polygon id="LC106" points="+0463.079,-0567.059,+0457.479,-0567.059,+0457.479,-0554.424,+0463.079,-0554.424" />
<polygon id="LC107" points="+0438.509,-0617.459,+0402.739,-0617.459,+0402.739,-0614.659,+0400.429,-0614.659,+0400.429,-0575.109,+0402.739,-0575.109,+0402.739,-0574.409,+0430.739,-0574.409,+0430.739,-0581.059,+0438.509,-0581.059,+0438.509,-0593.554" />
<polygon id="LC108" points="+0439.209,-0581.059,+0444.809,-0581.059,+0444.809,-0593.309,+0439.209,-0593.309" />
<polygon id="LC109" points="+0445.299,-0581.059,+0450.899,-0581.059,+0450.899,-0593.309,+0445.299,-0593.309" />
<polygon id="LC110" points="+0451.389,-0581.059,+0457.129,-0581.059,+0457.129,-0593.309,+0451.389,-0593.309" />
<polygon id="LC111" points="+0457.619,-0581.059,+0463.219,-0581.059,+0463.219,-0593.309,+0457.619,-0593.309" />
<polygon id="LC112" points="+0441.939,-0617.459,+0439.209,-0617.459,+0439.209,-0593.799,+0445.054,-0593.799,+0451.144,-0593.799,+0457.374,-0593.799,+0463.709,-0593.799,+0463.709,-0581.059,+0469.939,-0581.059,+0469.939,-0617.459,+0445.439,-0617.459,+0445.439,-0614.659,+0441.939,-0614.659" />
<polygon id="LC113" points="+0469.939,-0554.424,+0469.939,-0567.059,+0463.569,-0567.059,+0463.569,-0554.424" />
<polygon id="LC114" points="+0484.289,-0614.659,+0484.289,-0617.459,+0483.484,-0617.459,+0483.484,-0581.059,+0489.924,-0581.059,+0489.924,-0593.799,+0496.259,-0593.799,+0502.349,-0593.799,+0508.439,-0593.799,+0514.109,-0593.799,+0514.109,-0617.459,+0495.607,-0617.459,+0495.607,-0603.306,+0494.907,-0603.306,+0494.907,-0617.459,+0487.089,-0617.459,+0487.089,-0614.659" />
<polygon id="LC115" points="+0490.414,-0581.059,+0496.014,-0581.059,+0496.014,-0593.309,+0490.414,-0593.309" />
<polygon id="LC116" points="+0496.504,-0581.059,+0502.104,-0581.059,+0502.104,-0593.309,+0496.504,-0593.309" />
<polygon id="LC117" points="+0502.594,-0581.059,+0508.194,-0581.059,+0508.194,-0593.309,+0502.594,-0593.309" />
<polygon id="LC118" points="+0508.684,-0581.059,+0514.109,-0581.059,+0514.109,-0593.309,+0508.684,-0593.309" />
<polygon id="LC119" points="+0526.289,-0614.659,+0526.289,-0617.459,+0514.809,-0617.459,+0514.809,-0593.554,+0514.809,-0581.059,+0572.979,-0581.059,+0572.979,-0614.397,+0568.709,-0614.397,+0568.709,-0617.459,+0529.089,-0617.459,+0529.089,-0614.659" />
<polygon id="LC120" points="+0483.729,-0533.214,+0487.159,-0533.214,+0487.159,-0530.064,+0483.729,-0530.064,+0483.729,-0525.514,+0483.818,-0525.514,+0510.189,-0525.514,+0510.189,-0530.659,+0513.969,-0530.659,+0513.969,-0554.319,+0507.704,-0554.319,+0501.614,-0554.319,+0495.524,-0554.319,+0489.189,-0554.319,+0489.189,-0567.059,+0483.729,-0567.059" />
<polygon id="LC121" points="+0495.279,-0567.059,+0489.679,-0567.059,+0489.679,-0554.809,+0495.279,-0554.809" />
<polygon id="LC122" points="+0501.369,-0567.059,+0495.769,-0567.059,+0495.769,-0554.809,+0501.369,-0554.809" />
<polygon id="LC123" points="+0507.459,-0567.059,+0501.859,-0567.059,+0501.859,-0554.809,+0507.459,-0554.809" />
<polygon id="LC124" points="+0513.969,-0567.059,+0507.949,-0567.059,+0507.949,-0554.809,+0513.969,-0554.809" />
<polygon id="LC125" points="+0526.296,-0530.659,+0526.296,-0533.459,+0529.096,-0533.459,+0529.096,-0530.659,+0557.369,-0530.659,+0557.369,-0533.459,+0560.169,-0533.459,+0560.169,-0530.659,+0572.979,-0530.659,+0572.979,-0567.059,+0514.669,-0567.059,+0514.669,-0554.564,+0514.669,-0530.659" />
<polygon id="LC126" points="+0644.169,-0591.769,+0662.789,-0591.769,+0662.789,-0604.719,+0655.999,-0604.719,+0655.999,-0611.089,+0651.099,-0611.089,+0651.099,-0604.719,+0644.169,-0604.719" />
<polygon id="LC127" points="+0662.789,-0617.459,+0656.489,-0617.459,+0656.489,-0611.334,+0656.489,-0605.209,+0662.789,-0605.209" />
<polygon id="LC128" points="+0650.609,-0617.459,+0644.169,-0617.459,+0644.169,-0605.209,+0650.609,-0605.209,+0650.609,-0611.334" />
<polygon id="LC129" points="+0663.279,-0591.769,+0681.829,-0591.769,+0681.829,-0604.719,+0675.914,-0604.719,+0669.404,-0604.719,+0663.279,-0604.719" />
<polygon id="LC130" points="+0669.159,-0617.459,+0663.279,-0617.459,+0663.279,-0605.209,+0669.159,-0605.209" />
<polygon id="LC131" points="+0675.669,-0617.459,+0669.649,-0617.459,+0669.649,-0605.209,+0675.669,-0605.209" />
<polygon id="LC132" points="+0681.829,-0617.459,+0676.159,-0617.459,+0676.159,-0605.209,+0681.829,-0605.209" />
<polygon id="LC133" points="+0694.289,-0617.459,+0682.319,-0617.459,+0682.319,-0604.964,+0682.319,-0591.419,+0682.319,-0580.849,+0705.279,-0580.849,+0705.279,-0617.459,+0697.089,-0617.459,+0697.089,-0614.659,+0694.289,-0614.659" />
<polygon id="LC134" points="+0946.289,-0617.459,+0942.439,-0617.459,+0942.439,-0581.782,+0990.389,-0581.782,+0990.389,-0589.074,+0990.389,-0614.659,+0988.289,-0614.659,+0988.289,-0617.459,+0949.089,-0617.459,+0949.089,-0614.659,+0946.289,-0614.659" />
<polygon id="LC135" points="+1240.289,-0614.659,+1240.289,-0617.459,+1198.289,-0617.459,+1198.289,-0614.659,+1195.489,-0614.659,+1195.489,-0617.459,+1159.089,-0617.459,+1159.089,-0614.659,+1156.289,-0614.659,+1156.289,-0617.459,+1117.089,-0617.459,+1117.089,-0614.659,+1114.289,-0614.659,+1114.289,-0617.459,+1089.579,-0617.459,+1089.579,-0581.537,+1089.579,-0567.164,+1089.579,-0530.659,+1114.289,-0530.659,+1114.289,-0533.459,+1117.089,-0533.459,+1117.089,-0530.659,+1127.939,-0530.659,+1127.939,-0526.669,+1142.289,-0526.669,+1155.449,-0526.669,+1183.869,-0526.669,+1183.869,-0530.659,+1195.489,-0530.659,+1195.489,-0533.459,+1198.289,-0533.459,+1198.289,-0530.659,+1224.189,-0530.659,+1224.189,-0533.459,+1226.989,-0533.459,+1226.989,-0530.659,+1252.889,-0530.659,+1252.889,-0533.459,+1255.689,-0533.459,+1255.689,-0530.659,+1282.639,-0530.659,+1282.639,-0533.459,+1285.439,-0533.459,+1285.439,-0573.009,+1282.639,-0573.009,+1282.639,-0575.109,+1285.439,-0575.109,+1285.439,-0614.659,+1282.639,-0614.659,+1282.639,-0617.459,+1243.089,-0617.459,+1243.089,-0614.659" />

</svg>